<svg width="400" height="74" viewBox="0 0 400 74" fill="none" xmlns="http://www.w3.org/2000/svg">
<path d="M11.112 26L5.016 18.536V26H1.656V9.248H5.016V16.76L11.112 9.248H15.168L8.256 17.552L15.36 26H11.112ZM20.9301 9.248V26H17.5701V9.248H20.9301ZM35.6498 9.248V11.96H31.1858V26H27.8258V11.96H23.3618V9.248H35.6498ZM37.2853 17.6C37.2853 15.952 37.6533 14.48 38.3893 13.184C39.1413 11.872 40.1573 10.856 41.4373 10.136C42.7333 9.4 44.1813 9.032 45.7813 9.032C47.6533 9.032 49.2933 9.512 50.7013 10.472C52.1093 11.432 53.0933 12.76 53.6533 14.456H49.7893C49.4053 13.656 48.8613 13.056 48.1573 12.656C47.4693 12.256 46.6693 12.056 45.7573 12.056C44.7813 12.056 43.9093 12.288 43.1413 12.752C42.3893 13.2 41.7973 13.84 41.3653 14.672C40.9493 15.504 40.7413 16.48 40.7413 17.6C40.7413 18.704 40.9493 19.68 41.3653 20.528C41.7973 21.36 42.3893 22.008 43.1413 22.472C43.9093 22.92 44.7813 23.144 45.7573 23.144C46.6693 23.144 47.4693 22.944 48.1573 22.544C48.8613 22.128 49.4053 21.52 49.7893 20.72H53.6533C53.0933 22.432 52.1093 23.768 50.7013 24.728C49.3093 25.672 47.6693 26.144 45.7813 26.144C44.1813 26.144 42.7333 25.784 41.4373 25.064C40.1573 24.328 39.1413 23.312 38.3893 22.016C37.6533 20.72 37.2853 19.248 37.2853 17.6ZM70.4192 9.248V26H67.0592V18.872H59.8832V26H56.5232V9.248H59.8832V16.136H67.0592V9.248H70.4192ZM77.0863 11.96V16.16H82.7263V18.824H77.0863V23.264H83.4463V26H73.7263V9.224H83.4463V11.96H77.0863ZM100.828 26H97.4678L89.8598 14.504V26H86.4998V9.224H89.8598L97.4678 20.744V9.224H100.828V26Z" fill="white"/>
<path d="M5.13 56.22H7.038L12.006 69H9.882L8.532 65.526H3.6L2.268 69H0.126L5.13 56.22ZM8.136 64.032L6.084 58.434L3.96 64.032H8.136ZM18.6265 61.296C17.8585 61.308 17.1745 61.482 16.5745 61.818C15.9865 62.154 15.5665 62.628 15.3145 63.24V69H13.3345V59.586H15.1705V61.692C15.4945 61.044 15.9205 60.528 16.4485 60.144C16.9765 59.748 17.5345 59.532 18.1225 59.496C18.2425 59.496 18.3385 59.496 18.4105 59.496C18.4945 59.496 18.5665 59.502 18.6265 59.514V61.296ZM24.1571 69.18C23.4251 69.18 22.7591 69.054 22.1591 68.802C21.5711 68.538 21.0611 68.178 20.6291 67.722C20.1971 67.266 19.8611 66.744 19.6211 66.156C19.3931 65.568 19.2791 64.944 19.2791 64.284C19.2791 63.396 19.4771 62.586 19.8731 61.854C20.2811 61.122 20.8451 60.534 21.5651 60.09C22.2971 59.646 23.1611 59.424 24.1571 59.424C25.1171 59.424 25.9511 59.64 26.6591 60.072C27.3791 60.492 27.9071 61.056 28.2431 61.764L26.3171 62.376C26.1011 61.98 25.7951 61.674 25.3991 61.458C25.0151 61.23 24.5891 61.116 24.1211 61.116C23.5931 61.116 23.1131 61.254 22.6811 61.53C22.2611 61.794 21.9251 62.166 21.6731 62.646C21.4331 63.114 21.3131 63.66 21.3131 64.284C21.3131 64.884 21.4391 65.43 21.6911 65.922C21.9431 66.402 22.2791 66.786 22.6991 67.074C23.1311 67.35 23.6111 67.488 24.1391 67.488C24.4631 67.488 24.7751 67.434 25.0751 67.326C25.3871 67.206 25.6571 67.05 25.8851 66.858C26.1131 66.654 26.2751 66.432 26.3711 66.192L28.3151 66.768C28.1111 67.236 27.8051 67.65 27.3971 68.01C27.0011 68.37 26.5271 68.658 25.9751 68.874C25.4351 69.078 24.8291 69.18 24.1571 69.18ZM38.3878 69H36.4078V63.726C36.4078 62.874 36.2518 62.238 35.9398 61.818C35.6278 61.398 35.1898 61.188 34.6258 61.188C34.2778 61.188 33.9178 61.284 33.5458 61.476C33.1738 61.668 32.8438 61.932 32.5558 62.268C32.2678 62.592 32.0578 62.97 31.9258 63.402V69H29.9458V55.86H31.9258V61.476C32.2858 60.84 32.7778 60.342 33.4018 59.982C34.0258 59.61 34.6978 59.424 35.4178 59.424C36.0058 59.424 36.4918 59.526 36.8758 59.73C37.2598 59.934 37.5598 60.216 37.7758 60.576C38.0038 60.924 38.1598 61.332 38.2438 61.8C38.3398 62.256 38.3878 62.742 38.3878 63.258V69ZM40.686 69V59.586H42.666V69H40.686ZM40.686 58.038V55.86H42.666V58.038H40.686ZM50.2834 68.514C50.1154 68.598 49.9054 68.688 49.6534 68.784C49.4014 68.88 49.1134 68.964 48.7894 69.036C48.4774 69.108 48.1534 69.144 47.8174 69.144C47.4094 69.144 47.0314 69.072 46.6834 68.928C46.3354 68.784 46.0534 68.556 45.8374 68.244C45.6334 67.92 45.5314 67.506 45.5314 67.002V61.116H44.2894V59.586H45.5314V56.49H47.5114V59.586H49.5634V61.116H47.5114V66.372C47.5354 66.696 47.6374 66.936 47.8174 67.092C48.0094 67.248 48.2434 67.326 48.5194 67.326C48.7954 67.326 49.0594 67.278 49.3114 67.182C49.5634 67.086 49.7494 67.008 49.8694 66.948L50.2834 68.514ZM55.7978 69.18C55.0658 69.18 54.3998 69.054 53.7998 68.802C53.2118 68.538 52.7018 68.184 52.2698 67.74C51.8378 67.284 51.5018 66.768 51.2618 66.192C51.0338 65.604 50.9198 64.98 50.9198 64.32C50.9198 63.432 51.1238 62.622 51.5317 61.89C51.9398 61.146 52.5098 60.552 53.2418 60.108C53.9738 59.652 54.8318 59.424 55.8158 59.424C56.7998 59.424 57.6458 59.652 58.3538 60.108C59.0738 60.552 59.6318 61.14 60.0278 61.872C60.4238 62.604 60.6218 63.39 60.6218 64.23C60.6218 64.374 60.6158 64.512 60.6038 64.644C60.5918 64.764 60.5798 64.866 60.5678 64.95H53.0258C53.0618 65.502 53.2118 65.988 53.4758 66.408C53.7518 66.816 54.0998 67.14 54.5198 67.38C54.9398 67.608 55.3898 67.722 55.8698 67.722C56.3978 67.722 56.8958 67.59 57.3638 67.326C57.8438 67.062 58.1678 66.714 58.3358 66.282L60.0278 66.768C59.8238 67.224 59.5118 67.638 59.0918 68.01C58.6838 68.37 58.1978 68.658 57.6338 68.874C57.0698 69.078 56.4578 69.18 55.7978 69.18ZM52.9718 63.636H58.6598C58.6238 63.096 58.4678 62.622 58.1918 62.214C57.9278 61.794 57.5858 61.47 57.1658 61.242C56.7578 61.002 56.3018 60.882 55.7978 60.882C55.3058 60.882 54.8498 61.002 54.4298 61.242C54.0218 61.47 53.6858 61.794 53.4218 62.214C53.1578 62.622 53.0078 63.096 52.9718 63.636ZM66.5028 69.18C65.7708 69.18 65.1048 69.054 64.5048 68.802C63.9168 68.538 63.4068 68.178 62.9748 67.722C62.5428 67.266 62.2068 66.744 61.9668 66.156C61.7388 65.568 61.6248 64.944 61.6248 64.284C61.6248 63.396 61.8228 62.586 62.2188 61.854C62.6268 61.122 63.1908 60.534 63.9108 60.09C64.6428 59.646 65.5068 59.424 66.5028 59.424C67.4628 59.424 68.2968 59.64 69.0048 60.072C69.7248 60.492 70.2528 61.056 70.5888 61.764L68.6628 62.376C68.4468 61.98 68.1408 61.674 67.7448 61.458C67.3608 61.23 66.9348 61.116 66.4668 61.116C65.9388 61.116 65.4588 61.254 65.0268 61.53C64.6068 61.794 64.2708 62.166 64.0188 62.646C63.7788 63.114 63.6588 63.66 63.6588 64.284C63.6588 64.884 63.7848 65.43 64.0368 65.922C64.2888 66.402 64.6248 66.786 65.0448 67.074C65.4768 67.35 65.9568 67.488 66.4848 67.488C66.8088 67.488 67.1208 67.434 67.4208 67.326C67.7328 67.206 68.0028 67.05 68.2308 66.858C68.4588 66.654 68.6208 66.432 68.7168 66.192L70.6608 66.768C70.4568 67.236 70.1508 67.65 69.7428 68.01C69.3468 68.37 68.8728 68.658 68.3208 68.874C67.7808 69.078 67.1748 69.18 66.5028 69.18ZM80.7335 69H78.7535V63.726C78.7535 62.874 78.5975 62.238 78.2855 61.818C77.9735 61.398 77.5355 61.188 76.9715 61.188C76.6235 61.188 76.2635 61.284 75.8915 61.476C75.5195 61.668 75.1895 61.932 74.9015 62.268C74.6135 62.592 74.4035 62.97 74.2715 63.402V69H72.2915V55.86H74.2715V61.476C74.6315 60.84 75.1235 60.342 75.7475 59.982C76.3715 59.61 77.0435 59.424 77.7635 59.424C78.3515 59.424 78.8375 59.526 79.2215 59.73C79.6055 59.934 79.9055 60.216 80.1215 60.576C80.3495 60.924 80.5055 61.332 80.5895 61.8C80.6855 62.256 80.7335 62.742 80.7335 63.258V69ZM96.155 69L90.017 62.502C89.501 61.95 89.093 61.482 88.793 61.098C88.493 60.714 88.277 60.36 88.145 60.036C88.013 59.712 87.947 59.376 87.947 59.028C87.947 58.44 88.091 57.924 88.379 57.48C88.679 57.036 89.087 56.688 89.603 56.436C90.119 56.184 90.695 56.058 91.331 56.058C91.919 56.058 92.459 56.166 92.951 56.382C93.443 56.586 93.839 56.892 94.139 57.3C94.439 57.696 94.589 58.188 94.589 58.776C94.589 59.328 94.445 59.826 94.157 60.27C93.869 60.714 93.485 61.122 93.005 61.494C92.525 61.866 91.991 62.232 91.403 62.592C90.947 62.892 90.533 63.192 90.161 63.492C89.789 63.78 89.495 64.092 89.279 64.428C89.075 64.752 88.973 65.118 88.973 65.526C88.973 65.934 89.087 66.3 89.315 66.624C89.543 66.936 89.849 67.182 90.233 67.362C90.617 67.53 91.037 67.614 91.493 67.614C92.057 67.614 92.591 67.482 93.095 67.218C93.599 66.954 94.049 66.582 94.445 66.102C94.841 65.61 95.147 65.034 95.363 64.374C95.591 63.714 95.705 62.994 95.705 62.214H97.325C97.325 63.27 97.157 64.224 96.821 65.076C96.497 65.928 96.053 66.66 95.489 67.272C94.937 67.884 94.295 68.358 93.563 68.694C92.843 69.018 92.081 69.18 91.277 69.18C90.449 69.18 89.717 69.018 89.081 68.694C88.445 68.358 87.947 67.914 87.587 67.362C87.239 66.81 87.065 66.192 87.065 65.508C87.065 64.836 87.215 64.254 87.515 63.762C87.827 63.258 88.223 62.814 88.703 62.43C89.195 62.034 89.687 61.68 90.179 61.368C90.707 61.032 91.163 60.738 91.547 60.486C91.931 60.222 92.231 59.958 92.447 59.694C92.663 59.418 92.771 59.124 92.771 58.812C92.771 58.428 92.633 58.122 92.357 57.894C92.093 57.654 91.751 57.534 91.331 57.534C91.019 57.534 90.743 57.6 90.503 57.732C90.275 57.864 90.095 58.038 89.963 58.254C89.831 58.47 89.765 58.71 89.765 58.974C89.765 59.154 89.813 59.34 89.909 59.532C90.005 59.712 90.185 59.952 90.449 60.252C90.713 60.54 91.079 60.936 91.547 61.44L98.765 69H96.155ZM104.711 69V56.22H106.727V69H104.711ZM117.806 69H115.826V63.726C115.826 62.85 115.682 62.208 115.394 61.8C115.118 61.392 114.704 61.188 114.152 61.188C113.768 61.188 113.384 61.284 113 61.476C112.628 61.668 112.292 61.932 111.992 62.268C111.692 62.592 111.476 62.97 111.344 63.402V69H109.364V59.586H111.164V61.476C111.404 61.056 111.716 60.696 112.1 60.396C112.496 60.084 112.94 59.844 113.432 59.676C113.924 59.508 114.446 59.424 114.998 59.424C115.562 59.424 116.024 59.526 116.384 59.73C116.756 59.934 117.044 60.216 117.248 60.576C117.464 60.924 117.608 61.332 117.68 61.8C117.764 62.256 117.806 62.742 117.806 63.258V69ZM125.272 68.514C125.104 68.598 124.894 68.688 124.642 68.784C124.39 68.88 124.102 68.964 123.778 69.036C123.466 69.108 123.142 69.144 122.806 69.144C122.398 69.144 122.02 69.072 121.672 68.928C121.324 68.784 121.042 68.556 120.826 68.244C120.622 67.92 120.52 67.506 120.52 67.002V61.116H119.278V59.586H120.52V56.49H122.5V59.586H124.552V61.116H122.5V66.372C122.524 66.696 122.626 66.936 122.806 67.092C122.998 67.248 123.232 67.326 123.508 67.326C123.784 67.326 124.048 67.278 124.3 67.182C124.552 67.086 124.738 67.008 124.858 66.948L125.272 68.514ZM130.786 69.18C130.054 69.18 129.388 69.054 128.788 68.802C128.2 68.538 127.69 68.184 127.258 67.74C126.826 67.284 126.49 66.768 126.25 66.192C126.022 65.604 125.908 64.98 125.908 64.32C125.908 63.432 126.112 62.622 126.52 61.89C126.928 61.146 127.498 60.552 128.23 60.108C128.962 59.652 129.82 59.424 130.804 59.424C131.788 59.424 132.634 59.652 133.342 60.108C134.062 60.552 134.62 61.14 135.016 61.872C135.412 62.604 135.61 63.39 135.61 64.23C135.61 64.374 135.604 64.512 135.592 64.644C135.58 64.764 135.568 64.866 135.556 64.95H128.014C128.05 65.502 128.2 65.988 128.464 66.408C128.74 66.816 129.088 67.14 129.508 67.38C129.928 67.608 130.378 67.722 130.858 67.722C131.386 67.722 131.884 67.59 132.352 67.326C132.832 67.062 133.156 66.714 133.324 66.282L135.016 66.768C134.812 67.224 134.5 67.638 134.08 68.01C133.672 68.37 133.186 68.658 132.622 68.874C132.058 69.078 131.446 69.18 130.786 69.18ZM127.96 63.636H133.648C133.612 63.096 133.456 62.622 133.18 62.214C132.916 61.794 132.574 61.47 132.154 61.242C131.746 61.002 131.29 60.882 130.786 60.882C130.294 60.882 129.838 61.002 129.418 61.242C129.01 61.47 128.674 61.794 128.41 62.214C128.146 62.622 127.996 63.096 127.96 63.636ZM142.517 61.296C141.749 61.308 141.065 61.482 140.465 61.818C139.877 62.154 139.457 62.628 139.205 63.24V69H137.225V59.586H139.061V61.692C139.385 61.044 139.811 60.528 140.339 60.144C140.867 59.748 141.425 59.532 142.013 59.496C142.133 59.496 142.229 59.496 142.301 59.496C142.385 59.496 142.457 59.502 142.517 59.514V61.296ZM143.958 69V59.586H145.938V69H143.958ZM143.958 58.038V55.86H145.938V58.038H143.958ZM152.547 69.18C151.803 69.18 151.137 69.054 150.549 68.802C149.961 68.538 149.451 68.178 149.019 67.722C148.599 67.266 148.275 66.75 148.047 66.174C147.819 65.586 147.705 64.962 147.705 64.302C147.705 63.642 147.819 63.018 148.047 62.43C148.275 61.842 148.599 61.326 149.019 60.882C149.451 60.426 149.961 60.072 150.549 59.82C151.149 59.556 151.815 59.424 152.547 59.424C153.279 59.424 153.939 59.556 154.527 59.82C155.127 60.072 155.637 60.426 156.057 60.882C156.489 61.326 156.819 61.842 157.047 62.43C157.275 63.018 157.389 63.642 157.389 64.302C157.389 64.962 157.275 65.586 157.047 66.174C156.819 66.75 156.489 67.266 156.057 67.722C155.637 68.178 155.127 68.538 154.527 68.802C153.939 69.054 153.279 69.18 152.547 69.18ZM149.739 64.32C149.739 64.92 149.865 65.46 150.117 65.94C150.369 66.42 150.705 66.798 151.125 67.074C151.545 67.35 152.019 67.488 152.547 67.488C153.063 67.488 153.531 67.35 153.951 67.074C154.383 66.786 154.725 66.402 154.977 65.922C155.229 65.43 155.355 64.89 155.355 64.302C155.355 63.702 155.229 63.162 154.977 62.682C154.725 62.202 154.383 61.824 153.951 61.548C153.531 61.26 153.063 61.116 152.547 61.116C152.019 61.116 151.545 61.26 151.125 61.548C150.705 61.836 150.369 62.22 150.117 62.7C149.865 63.168 149.739 63.708 149.739 64.32ZM164.437 61.296C163.669 61.308 162.985 61.482 162.385 61.818C161.797 62.154 161.377 62.628 161.125 63.24V69H159.145V59.586H160.981V61.692C161.305 61.044 161.731 60.528 162.259 60.144C162.787 59.748 163.345 59.532 163.933 59.496C164.053 59.496 164.149 59.496 164.221 59.496C164.305 59.496 164.377 59.502 164.437 59.514V61.296ZM170.172 69V56.22H174.708C176.088 56.22 177.24 56.508 178.164 57.084C179.088 57.648 179.778 58.416 180.234 59.388C180.702 60.348 180.936 61.416 180.936 62.592C180.936 63.888 180.678 65.016 180.162 65.976C179.658 66.936 178.938 67.68 178.002 68.208C177.066 68.736 175.968 69 174.708 69H170.172ZM178.884 62.592C178.884 61.692 178.716 60.9 178.38 60.216C178.056 59.52 177.582 58.98 176.958 58.596C176.346 58.2 175.596 58.002 174.708 58.002H172.188V67.218H174.708C175.608 67.218 176.364 67.014 176.976 66.606C177.6 66.198 178.074 65.646 178.398 64.95C178.722 64.254 178.884 63.468 178.884 62.592ZM187.071 69.18C186.339 69.18 185.673 69.054 185.073 68.802C184.485 68.538 183.975 68.184 183.543 67.74C183.111 67.284 182.775 66.768 182.535 66.192C182.307 65.604 182.193 64.98 182.193 64.32C182.193 63.432 182.397 62.622 182.805 61.89C183.213 61.146 183.783 60.552 184.515 60.108C185.247 59.652 186.105 59.424 187.089 59.424C188.073 59.424 188.919 59.652 189.627 60.108C190.347 60.552 190.905 61.14 191.301 61.872C191.697 62.604 191.895 63.39 191.895 64.23C191.895 64.374 191.889 64.512 191.877 64.644C191.865 64.764 191.853 64.866 191.841 64.95H184.299C184.335 65.502 184.485 65.988 184.749 66.408C185.025 66.816 185.373 67.14 185.793 67.38C186.213 67.608 186.663 67.722 187.143 67.722C187.671 67.722 188.169 67.59 188.637 67.326C189.117 67.062 189.441 66.714 189.609 66.282L191.301 66.768C191.097 67.224 190.785 67.638 190.365 68.01C189.957 68.37 189.471 68.658 188.907 68.874C188.343 69.078 187.731 69.18 187.071 69.18ZM184.245 63.636H189.933C189.897 63.096 189.741 62.622 189.465 62.214C189.201 61.794 188.859 61.47 188.439 61.242C188.031 61.002 187.575 60.882 187.071 60.882C186.579 60.882 186.123 61.002 185.703 61.242C185.295 61.47 184.959 61.794 184.695 62.214C184.431 62.622 184.281 63.096 184.245 63.636ZM196.858 69.18C196.066 69.18 195.316 69.054 194.608 68.802C193.9 68.538 193.294 68.148 192.79 67.632L193.528 66.3C194.068 66.78 194.608 67.128 195.148 67.344C195.7 67.56 196.246 67.668 196.786 67.668C197.338 67.668 197.788 67.566 198.136 67.362C198.484 67.146 198.658 66.834 198.658 66.426C198.658 66.126 198.568 65.904 198.388 65.76C198.208 65.616 197.944 65.49 197.596 65.382C197.26 65.274 196.852 65.154 196.372 65.022C195.7 64.818 195.136 64.608 194.68 64.392C194.224 64.164 193.882 63.888 193.654 63.564C193.426 63.24 193.312 62.826 193.312 62.322C193.312 61.71 193.468 61.188 193.78 60.756C194.092 60.324 194.524 59.994 195.076 59.766C195.64 59.538 196.288 59.424 197.02 59.424C197.704 59.424 198.334 59.532 198.91 59.748C199.498 59.952 200.014 60.276 200.458 60.72L199.612 62.034C199.192 61.65 198.76 61.368 198.316 61.188C197.884 61.008 197.416 60.918 196.912 60.918C196.624 60.918 196.348 60.954 196.084 61.026C195.82 61.086 195.598 61.206 195.418 61.386C195.25 61.554 195.166 61.794 195.166 62.106C195.166 62.358 195.238 62.562 195.382 62.718C195.526 62.874 195.742 63.006 196.03 63.114C196.318 63.222 196.672 63.342 197.092 63.474C197.824 63.69 198.448 63.906 198.964 64.122C199.48 64.326 199.876 64.596 200.152 64.932C200.44 65.256 200.584 65.706 200.584 66.282C200.584 67.194 200.242 67.908 199.558 68.424C198.886 68.928 197.986 69.18 196.858 69.18ZM202.352 69V59.586H204.332V69H202.352ZM202.352 58.038V55.86H204.332V58.038H202.352ZM210.437 69.09C209.801 69.09 209.219 68.964 208.691 68.712C208.163 68.448 207.707 68.094 207.323 67.65C206.951 67.206 206.657 66.696 206.441 66.12C206.237 65.544 206.135 64.938 206.135 64.302C206.135 63.63 206.243 63 206.459 62.412C206.675 61.824 206.975 61.308 207.359 60.864C207.755 60.408 208.217 60.054 208.745 59.802C209.273 59.55 209.861 59.424 210.509 59.424C211.265 59.424 211.925 59.604 212.489 59.964C213.065 60.324 213.539 60.792 213.911 61.368V59.586H215.657V68.73C215.657 69.642 215.435 70.416 214.991 71.052C214.559 71.688 213.965 72.174 213.209 72.51C212.453 72.846 211.601 73.014 210.653 73.014C209.609 73.014 208.745 72.834 208.061 72.474C207.377 72.114 206.795 71.622 206.315 70.998L207.431 69.954C207.791 70.458 208.253 70.842 208.817 71.106C209.393 71.37 210.005 71.502 210.653 71.502C211.193 71.502 211.691 71.4 212.147 71.196C212.615 71.004 212.987 70.698 213.263 70.278C213.539 69.87 213.677 69.354 213.677 68.73V67.29C213.341 67.854 212.879 68.298 212.291 68.622C211.703 68.934 211.085 69.09 210.437 69.09ZM211.085 67.488C211.385 67.488 211.673 67.44 211.949 67.344C212.225 67.236 212.477 67.098 212.705 66.93C212.945 66.75 213.149 66.552 213.317 66.336C213.485 66.108 213.605 65.868 213.677 65.616V63.15C213.521 62.742 213.299 62.388 213.011 62.088C212.723 61.776 212.399 61.536 212.039 61.368C211.679 61.2 211.313 61.116 210.941 61.116C210.509 61.116 210.119 61.212 209.771 61.404C209.435 61.584 209.147 61.83 208.907 62.142C208.667 62.442 208.481 62.784 208.349 63.168C208.217 63.552 208.151 63.948 208.151 64.356C208.151 64.788 208.223 65.19 208.367 65.562C208.523 65.934 208.733 66.27 208.997 66.57C209.261 66.858 209.573 67.086 209.933 67.254C210.293 67.41 210.677 67.488 211.085 67.488ZM226.474 69H224.494V63.726C224.494 62.85 224.35 62.208 224.062 61.8C223.786 61.392 223.372 61.188 222.82 61.188C222.436 61.188 222.052 61.284 221.668 61.476C221.296 61.668 220.96 61.932 220.66 62.268C220.36 62.592 220.144 62.97 220.012 63.402V69H218.032V59.586H219.832V61.476C220.072 61.056 220.384 60.696 220.768 60.396C221.164 60.084 221.608 59.844 222.1 59.676C222.592 59.508 223.114 59.424 223.666 59.424C224.23 59.424 224.692 59.526 225.052 59.73C225.424 59.934 225.712 60.216 225.916 60.576C226.132 60.924 226.276 61.332 226.348 61.8C226.432 62.256 226.474 62.742 226.474 63.258V69ZM233.129 64.968V63.186H238.511V64.968H233.129ZM244.775 69C244.775 68.496 244.817 68.034 244.901 67.614C244.985 67.182 245.129 66.774 245.333 66.39C245.549 66.006 245.843 65.646 246.215 65.31C246.599 64.962 247.085 64.632 247.673 64.32C248.093 64.08 248.489 63.87 248.861 63.69C249.233 63.498 249.563 63.312 249.851 63.132C250.139 62.94 250.361 62.736 250.517 62.52C250.685 62.304 250.769 62.058 250.769 61.782C250.769 61.518 250.697 61.272 250.553 61.044C250.409 60.816 250.193 60.636 249.905 60.504C249.617 60.36 249.269 60.288 248.861 60.288C248.537 60.288 248.237 60.33 247.961 60.414C247.697 60.498 247.451 60.612 247.223 60.756C247.007 60.888 246.809 61.038 246.629 61.206C246.449 61.362 246.293 61.518 246.161 61.674L244.919 60.252C245.039 60.108 245.225 59.946 245.477 59.766C245.741 59.574 246.053 59.388 246.413 59.208C246.785 59.016 247.205 58.86 247.673 58.74C248.141 58.608 248.651 58.542 249.203 58.542C249.983 58.542 250.649 58.674 251.201 58.938C251.753 59.19 252.173 59.544 252.461 60C252.761 60.444 252.911 60.948 252.911 61.512C252.911 61.956 252.821 62.346 252.641 62.682C252.473 63.018 252.251 63.318 251.975 63.582C251.699 63.834 251.405 64.056 251.093 64.248C250.793 64.428 250.511 64.59 250.247 64.734C249.779 64.962 249.371 65.172 249.023 65.364C248.687 65.556 248.399 65.748 248.159 65.94C247.919 66.12 247.721 66.312 247.565 66.516C247.409 66.708 247.277 66.942 247.169 67.218H253.109V69H244.775ZM264.068 63.726C264.068 64.782 263.864 65.724 263.456 66.552C263.06 67.368 262.514 68.01 261.818 68.478C261.134 68.946 260.348 69.18 259.46 69.18C258.584 69.18 257.798 68.946 257.102 68.478C256.406 68.01 255.854 67.368 255.446 66.552C255.05 65.724 254.852 64.782 254.852 63.726C254.852 62.67 255.05 61.734 255.446 60.918C255.854 60.09 256.406 59.442 257.102 58.974C257.798 58.494 258.584 58.254 259.46 58.254C260.348 58.254 261.134 58.494 261.818 58.974C262.514 59.442 263.06 60.09 263.456 60.918C263.864 61.734 264.068 62.67 264.068 63.726ZM262.052 63.726C262.052 63.006 261.944 62.376 261.728 61.836C261.512 61.284 261.206 60.858 260.81 60.558C260.414 60.246 259.964 60.09 259.46 60.09C258.944 60.09 258.488 60.246 258.092 60.558C257.696 60.858 257.384 61.284 257.156 61.836C256.94 62.376 256.832 63.006 256.832 63.726C256.832 64.446 256.94 65.076 257.156 65.616C257.384 66.156 257.696 66.582 258.092 66.894C258.488 67.194 258.944 67.344 259.46 67.344C259.964 67.344 260.408 67.194 260.792 66.894C261.188 66.582 261.494 66.156 261.71 65.616C261.938 65.076 262.052 64.446 262.052 63.726ZM265.71 69C265.71 68.496 265.752 68.034 265.836 67.614C265.92 67.182 266.064 66.774 266.268 66.39C266.484 66.006 266.778 65.646 267.15 65.31C267.534 64.962 268.02 64.632 268.608 64.32C269.028 64.08 269.424 63.87 269.796 63.69C270.168 63.498 270.498 63.312 270.786 63.132C271.074 62.94 271.296 62.736 271.452 62.52C271.62 62.304 271.704 62.058 271.704 61.782C271.704 61.518 271.632 61.272 271.488 61.044C271.344 60.816 271.128 60.636 270.84 60.504C270.552 60.36 270.204 60.288 269.796 60.288C269.472 60.288 269.172 60.33 268.896 60.414C268.632 60.498 268.386 60.612 268.158 60.756C267.942 60.888 267.744 61.038 267.564 61.206C267.384 61.362 267.228 61.518 267.096 61.674L265.854 60.252C265.974 60.108 266.16 59.946 266.412 59.766C266.676 59.574 266.988 59.388 267.348 59.208C267.72 59.016 268.14 58.86 268.608 58.74C269.076 58.608 269.586 58.542 270.138 58.542C270.918 58.542 271.584 58.674 272.136 58.938C272.688 59.19 273.108 59.544 273.396 60C273.696 60.444 273.846 60.948 273.846 61.512C273.846 61.956 273.756 62.346 273.576 62.682C273.408 63.018 273.186 63.318 272.91 63.582C272.634 63.834 272.34 64.056 272.028 64.248C271.728 64.428 271.446 64.59 271.182 64.734C270.714 64.962 270.306 65.172 269.958 65.364C269.622 65.556 269.334 65.748 269.094 65.94C268.854 66.12 268.656 66.312 268.5 66.516C268.344 66.708 268.212 66.942 268.104 67.218H274.044V69H265.71ZM281.511 64.752C282.015 64.836 282.453 65.028 282.825 65.328C283.209 65.616 283.503 65.988 283.707 66.444C283.911 66.888 284.013 67.392 284.013 67.956C284.013 68.7 283.827 69.348 283.455 69.9C283.095 70.452 282.579 70.878 281.907 71.178C281.235 71.49 280.443 71.646 279.531 71.646C278.619 71.646 277.815 71.484 277.119 71.16C276.423 70.848 275.865 70.392 275.445 69.792L276.651 68.424C276.939 68.856 277.311 69.198 277.767 69.45C278.223 69.714 278.799 69.846 279.495 69.846C280.275 69.846 280.881 69.678 281.313 69.342C281.745 69.006 281.961 68.502 281.961 67.83C281.961 67.134 281.721 66.588 281.241 66.192C280.773 65.796 280.065 65.598 279.117 65.598H278.631V64.05H279.171C279.975 64.05 280.593 63.864 281.025 63.492C281.457 63.108 281.673 62.628 281.673 62.052C281.673 61.668 281.583 61.356 281.403 61.116C281.235 60.864 280.995 60.678 280.683 60.558C280.371 60.438 280.011 60.378 279.603 60.378C278.991 60.378 278.451 60.51 277.983 60.774C277.515 61.038 277.143 61.416 276.867 61.908L275.625 60.558C275.865 60.174 276.195 59.838 276.615 59.55C277.035 59.262 277.515 59.04 278.055 58.884C278.607 58.716 279.189 58.632 279.801 58.632C280.593 58.632 281.289 58.764 281.889 59.028C282.489 59.292 282.951 59.664 283.275 60.144C283.611 60.624 283.779 61.188 283.779 61.836C283.779 62.304 283.689 62.748 283.509 63.168C283.329 63.576 283.065 63.924 282.717 64.212C282.369 64.488 281.967 64.668 281.511 64.752Z" fill="#B6B9BF"/>
</svg>
