<svg width="1300" height="50" viewBox="0 0 1300 50" fill="none" xmlns="http://www.w3.org/2000/svg">
<line y1="1" x2="1300" y2="1" stroke="#265267"/>
<path d="M3.03835 37.6364C3.03835 37.179 3.15057 36.7614 3.375 36.3835C3.59943 36.0057 3.89915 35.706 4.27415 35.4844C4.65199 35.2599 5.0696 35.1477 5.52699 35.1477C5.92472 35.1477 6.29261 35.2344 6.63068 35.4077C6.96875 35.5781 7.24858 35.8125 7.47017 36.1108C7.69176 36.4091 7.8267 36.7443 7.875 37.1165H6.76705C6.71591 36.8523 6.57102 36.6364 6.33239 36.4688C6.09659 36.2983 5.82813 36.2131 5.52699 36.2131C5.26563 36.2131 5.02699 36.277 4.81108 36.4048C4.59517 36.5327 4.4233 36.7045 4.29545 36.9205C4.16761 37.1335 4.10369 37.3722 4.10369 37.6364C4.10369 37.8977 4.16761 38.1364 4.29545 38.3523C4.4233 38.5682 4.59517 38.7401 4.81108 38.8679C5.02699 38.9957 5.26563 39.0597 5.52699 39.0597C5.82813 39.0597 6.08523 38.9759 6.2983 38.8082C6.51136 38.6378 6.64489 38.4205 6.69886 38.1562H7.80682C7.75852 38.5284 7.62926 38.8636 7.41903 39.1619C7.20881 39.4602 6.94034 39.696 6.61364 39.8693C6.28693 40.0398 5.92472 40.125 5.52699 40.125C5.0696 40.125 4.65199 40.0142 4.27415 39.7926C3.89915 39.5682 3.59943 39.267 3.375 38.8892C3.15057 38.5114 3.03835 38.0938 3.03835 37.6364ZM5.48864 42.1364C4.86932 42.1364 4.28693 42.0199 3.74148 41.7869C3.19886 41.554 2.72017 41.2315 2.3054 40.8196C1.89347 40.4048 1.5696 39.9261 1.33381 39.3835C1.10085 38.8409 0.985795 38.2585 0.988636 37.6364C0.991477 37.0142 1.10938 36.4318 1.34233 35.8892C1.57813 35.3466 1.90199 34.8693 2.31392 34.4574C2.72585 34.0426 3.20313 33.7187 3.74574 33.4858C4.28835 33.2528 4.86932 33.1364 5.48864 33.1364C6.1108 33.1364 6.69318 33.2528 7.2358 33.4858C7.78125 33.7187 8.25852 34.0426 8.66761 34.4574C9.07955 34.8693 9.40199 35.3466 9.63494 35.8892C9.8679 36.4318 9.9858 37.0142 9.98864 37.6364C9.99148 38.2585 9.87642 38.8409 9.64347 39.3835C9.41051 39.9261 9.08807 40.4048 8.67614 40.8196C8.2642 41.2315 7.78551 41.554 7.24006 41.7869C6.6946 42.0199 6.1108 42.1364 5.48864 42.1364ZM5.48864 41.0028C5.95455 41.0028 6.39205 40.9162 6.80114 40.7429C7.21023 40.5696 7.56818 40.3295 7.875 40.0227C8.18466 39.7131 8.42614 39.3551 8.59943 38.9489C8.77273 38.5398 8.85795 38.1037 8.85511 37.6406C8.85511 37.1747 8.76705 36.7372 8.59091 36.3281C8.41761 35.919 8.17614 35.5611 7.86648 35.2543C7.55966 34.9446 7.20312 34.7031 6.79688 34.5298C6.39062 34.3565 5.95455 34.2699 5.48864 34.2699C5.02557 34.2699 4.59091 34.3565 4.18466 34.5298C3.77841 34.7031 3.42045 34.9446 3.1108 35.2543C2.80398 35.5639 2.5625 35.9233 2.38636 36.3324C2.21023 36.7386 2.12216 37.1747 2.12216 37.6406C2.11932 38.1009 2.20455 38.5355 2.37784 38.9446C2.55398 39.3509 2.79545 39.7088 3.10227 40.0185C3.41193 40.3253 3.76989 40.5668 4.17614 40.7429C4.58523 40.9162 5.02273 41.0028 5.48864 41.0028ZM19.875 35.5653C19.8295 35.1619 19.642 34.8494 19.3125 34.6278C18.983 34.4034 18.5682 34.2912 18.0682 34.2912C17.7102 34.2912 17.4006 34.348 17.1392 34.4616C16.8778 34.5724 16.6747 34.7259 16.5298 34.9219C16.3878 35.1151 16.3168 35.3352 16.3168 35.5824C16.3168 35.7898 16.3651 35.9687 16.4616 36.1193C16.5611 36.2699 16.6903 36.3963 16.8494 36.4986C17.0114 36.598 17.1847 36.6818 17.3693 36.75C17.554 36.8153 17.7315 36.8693 17.902 36.9119L18.7543 37.1335C19.0327 37.2017 19.3182 37.294 19.6108 37.4105C19.9034 37.527 20.1747 37.6804 20.4247 37.8707C20.6747 38.0611 20.8764 38.2969 21.0298 38.5781C21.1861 38.8594 21.2642 39.196 21.2642 39.5881C21.2642 40.0824 21.1364 40.5213 20.8807 40.9048C20.6278 41.2884 20.2599 41.5909 19.777 41.8125C19.2969 42.0341 18.7159 42.1449 18.0341 42.1449C17.3807 42.1449 16.8153 42.0412 16.3381 41.8338C15.8608 41.6264 15.4872 41.3324 15.2173 40.9517C14.9474 40.5682 14.7983 40.1136 14.7699 39.5881H16.0909C16.1165 39.9034 16.2188 40.1662 16.3977 40.3764C16.5795 40.5838 16.8111 40.7386 17.0923 40.8409C17.3764 40.9403 17.6875 40.9901 18.0256 40.9901C18.3977 40.9901 18.7287 40.9318 19.0185 40.8153C19.3111 40.696 19.5412 40.5312 19.7088 40.321C19.8764 40.108 19.9602 39.8594 19.9602 39.5753C19.9602 39.3168 19.8864 39.1051 19.7386 38.9403C19.5938 38.7756 19.3963 38.6392 19.1463 38.5312C18.8991 38.4233 18.6193 38.3281 18.3068 38.2457L17.2756 37.9645C16.5767 37.7741 16.0227 37.4943 15.6136 37.125C15.2074 36.7557 15.0043 36.267 15.0043 35.6591C15.0043 35.1562 15.1406 34.7173 15.4134 34.3423C15.6861 33.9673 16.0554 33.6761 16.5213 33.4688C16.9872 33.2585 17.5128 33.1534 18.098 33.1534C18.6889 33.1534 19.2102 33.2571 19.6619 33.4645C20.1165 33.6719 20.4744 33.9574 20.7358 34.321C20.9972 34.6818 21.1335 35.0966 21.1449 35.5653H19.875ZM24.6403 42.1449C24.2255 42.1449 23.8505 42.0682 23.5153 41.9148C23.18 41.7585 22.9144 41.5327 22.7184 41.2372C22.5252 40.9418 22.4286 40.5795 22.4286 40.1506C22.4286 39.7812 22.4996 39.4773 22.6417 39.2386C22.7837 39 22.9755 38.8111 23.217 38.6719C23.4585 38.5327 23.7283 38.4276 24.0266 38.3565C24.3249 38.2855 24.6289 38.2315 24.9386 38.1946C25.3306 38.1491 25.6488 38.1122 25.8931 38.0838C26.1374 38.0526 26.315 38.0028 26.4258 37.9347C26.5366 37.8665 26.592 37.7557 26.592 37.6023V37.5724C26.592 37.2003 26.4869 36.9119 26.2766 36.7074C26.0692 36.5028 25.7596 36.4006 25.3477 36.4006C24.9187 36.4006 24.5806 36.4957 24.3335 36.6861C24.0891 36.8736 23.9201 37.0824 23.8263 37.3125L22.6289 37.0398C22.771 36.642 22.9783 36.321 23.2511 36.0767C23.5266 35.8295 23.8434 35.6506 24.2013 35.5398C24.5593 35.4261 24.9357 35.3693 25.3306 35.3693C25.592 35.3693 25.869 35.4006 26.1616 35.4631C26.457 35.5227 26.7326 35.6335 26.9883 35.7955C27.2468 35.9574 27.4585 36.1889 27.6232 36.4901C27.788 36.7884 27.8704 37.1761 27.8704 37.6534V42H26.6261V41.1051H26.5749C26.4925 41.2699 26.369 41.4318 26.2042 41.5909C26.0394 41.75 25.8278 41.8821 25.5692 41.9872C25.3107 42.0923 25.0011 42.1449 24.6403 42.1449ZM24.9173 41.1222C25.2695 41.1222 25.5707 41.0526 25.8207 40.9134C26.0735 40.7741 26.2653 40.5923 26.396 40.3679C26.5295 40.1406 26.5962 39.8977 26.5962 39.6392V38.7955C26.5508 38.8409 26.4627 38.8835 26.332 38.9233C26.2042 38.9602 26.0579 38.9929 25.8931 39.0213C25.7283 39.0469 25.5678 39.071 25.4116 39.0938C25.2553 39.1136 25.1246 39.1307 25.0195 39.1449C24.7724 39.1761 24.5465 39.2287 24.342 39.3026C24.1403 39.3764 23.9783 39.483 23.8562 39.6222C23.7369 39.7585 23.6772 39.9403 23.6772 40.1676C23.6772 40.483 23.7937 40.7216 24.0266 40.8835C24.2596 41.0426 24.5565 41.1222 24.9173 41.1222ZM30.8416 38.1136V42H29.5675V35.4545H30.7905V36.5199H30.8714C31.022 36.1733 31.2578 35.8949 31.5788 35.6847C31.9027 35.4744 32.3104 35.3693 32.8018 35.3693C33.2479 35.3693 33.6385 35.4631 33.9737 35.6506C34.3089 35.8352 34.5689 36.1108 34.7536 36.4773C34.9382 36.8437 35.0305 37.2969 35.0305 37.8366V42H33.7564V37.9901C33.7564 37.5156 33.6328 37.1449 33.3857 36.8778C33.1385 36.608 32.799 36.473 32.3672 36.473C32.0717 36.473 31.8089 36.5369 31.5788 36.6648C31.3516 36.7926 31.1712 36.9801 31.0376 37.2273C30.907 37.4716 30.8416 37.767 30.8416 38.1136ZM41.6442 37.0526L40.4893 37.2571C40.4411 37.1094 40.3643 36.9687 40.2592 36.8352C40.157 36.7017 40.0178 36.5923 39.8416 36.5071C39.6655 36.4219 39.4453 36.3793 39.1811 36.3793C38.8203 36.3793 38.5192 36.4602 38.2777 36.6222C38.0362 36.7812 37.9155 36.9872 37.9155 37.2401C37.9155 37.4588 37.9964 37.6349 38.1584 37.7685C38.3203 37.902 38.5817 38.0114 38.9425 38.0966L39.9822 38.3352C40.5845 38.4744 41.0334 38.6889 41.3288 38.9787C41.6243 39.2685 41.772 39.6449 41.772 40.108C41.772 40.5 41.6584 40.8494 41.4311 41.1562C41.2067 41.4602 40.8928 41.6989 40.4893 41.8722C40.0888 42.0455 39.6243 42.1321 39.0959 42.1321C38.3629 42.1321 37.7649 41.9759 37.3018 41.6634C36.8388 41.348 36.5547 40.9006 36.4496 40.321L37.6811 40.1335C37.7578 40.4545 37.9155 40.6974 38.1541 40.8622C38.3928 41.0241 38.7038 41.1051 39.0874 41.1051C39.505 41.1051 39.8388 41.0185 40.0888 40.8452C40.3388 40.669 40.4638 40.4545 40.4638 40.2017C40.4638 39.9972 40.3871 39.8253 40.2337 39.6861C40.0831 39.5469 39.8516 39.4418 39.5391 39.3707L38.4311 39.1278C37.8203 38.9886 37.3686 38.767 37.076 38.4631C36.7862 38.1591 36.6413 37.7741 36.6413 37.3082C36.6413 36.9219 36.7493 36.5838 36.9652 36.294C37.1811 36.0043 37.4794 35.7784 37.8601 35.6165C38.2408 35.4517 38.6768 35.3693 39.1683 35.3693C39.8757 35.3693 40.4325 35.5227 40.8388 35.8295C41.245 36.1335 41.5135 36.5412 41.6442 37.0526ZM46.451 42V33.2727H49.647C50.2663 33.2727 50.7791 33.375 51.1854 33.5795C51.5916 33.7812 51.8956 34.0554 52.0973 34.402C52.299 34.7457 52.3999 35.1335 52.3999 35.5653C52.3999 35.929 52.3331 36.2358 52.1996 36.4858C52.0661 36.733 51.8871 36.9318 51.6626 37.0824C51.4411 37.2301 51.1967 37.3381 50.9297 37.4062V37.4915C51.2195 37.5057 51.5021 37.5994 51.7777 37.7727C52.0561 37.9432 52.2862 38.1861 52.468 38.5014C52.6499 38.8168 52.7408 39.2003 52.7408 39.652C52.7408 40.098 52.6357 40.4986 52.4254 40.8537C52.218 41.206 51.897 41.4858 51.4624 41.6932C51.0277 41.8977 50.4723 42 49.7962 42H46.451ZM47.7678 40.8707H49.6683C50.299 40.8707 50.7507 40.7486 51.0234 40.5043C51.2962 40.2599 51.4325 39.9545 51.4325 39.5881C51.4325 39.3125 51.3629 39.0597 51.2237 38.8295C51.0845 38.5994 50.8857 38.4162 50.6271 38.2798C50.3714 38.1435 50.0675 38.0753 49.7152 38.0753H47.7678V40.8707ZM47.7678 37.0483H49.532C49.8274 37.0483 50.093 36.9915 50.3288 36.8778C50.5675 36.7642 50.7564 36.6051 50.8956 36.4006C51.0376 36.1932 51.1087 35.9489 51.1087 35.6676C51.1087 35.3068 50.9822 35.0043 50.7294 34.7599C50.4766 34.5156 50.0888 34.3935 49.5661 34.3935H47.7678V37.0483ZM54.2003 42V35.4545H55.4318V36.4943H55.5C55.6193 36.142 55.8295 35.8651 56.1307 35.6634C56.4347 35.4588 56.7784 35.3565 57.1619 35.3565C57.2415 35.3565 57.3352 35.3594 57.4432 35.3651C57.554 35.3707 57.6406 35.3778 57.7031 35.3864V36.6051C57.652 36.5909 57.5611 36.5753 57.4304 36.5582C57.2997 36.5384 57.169 36.5284 57.0384 36.5284C56.7372 36.5284 56.4688 36.5923 56.233 36.7202C56 36.8452 55.8153 37.0199 55.679 37.2443C55.5426 37.4659 55.4744 37.7187 55.4744 38.0028V42H54.2003ZM61.3285 42.1321C60.7148 42.1321 60.1793 41.9915 59.7219 41.7102C59.2646 41.429 58.9094 41.0355 58.6566 40.5298C58.4038 40.0241 58.2773 39.4332 58.2773 38.7571C58.2773 38.0781 58.4038 37.4844 58.6566 36.9759C58.9094 36.4673 59.2646 36.0724 59.7219 35.7912C60.1793 35.5099 60.7148 35.3693 61.3285 35.3693C61.9421 35.3693 62.4776 35.5099 62.935 35.7912C63.3924 36.0724 63.7475 36.4673 64.0004 36.9759C64.2532 37.4844 64.3796 38.0781 64.3796 38.7571C64.3796 39.4332 64.2532 40.0241 64.0004 40.5298C63.7475 41.0355 63.3924 41.429 62.935 41.7102C62.4776 41.9915 61.9421 42.1321 61.3285 42.1321ZM61.3327 41.0625C61.7305 41.0625 62.06 40.9574 62.3214 40.7472C62.5827 40.5369 62.7759 40.2571 62.9009 39.9077C63.0288 39.5582 63.0927 39.1733 63.0927 38.7528C63.0927 38.3352 63.0288 37.9517 62.9009 37.6023C62.7759 37.25 62.5827 36.9673 62.3214 36.7543C62.06 36.5412 61.7305 36.4347 61.3327 36.4347C60.9322 36.4347 60.5998 36.5412 60.3356 36.7543C60.0742 36.9673 59.8796 37.25 59.7518 37.6023C59.6268 37.9517 59.5643 38.3352 59.5643 38.7528C59.5643 39.1733 59.6268 39.5582 59.7518 39.9077C59.8796 40.2571 60.0742 40.5369 60.3356 40.7472C60.5998 40.9574 60.9322 41.0625 61.3327 41.0625ZM68.8572 35.4545V36.4773H65.282V35.4545H68.8572ZM66.2408 33.8864H67.5149V40.0781C67.5149 40.3253 67.5518 40.5114 67.6257 40.6364C67.6996 40.7585 67.7947 40.8423 67.9112 40.8878C68.0305 40.9304 68.1598 40.9517 68.299 40.9517C68.4013 40.9517 68.4908 40.9446 68.5675 40.9304C68.6442 40.9162 68.7038 40.9048 68.7464 40.8963L68.9766 41.9489C68.9027 41.9773 68.7976 42.0057 68.6612 42.0341C68.5249 42.0653 68.3544 42.0824 68.1499 42.0852C67.8146 42.0909 67.5021 42.0312 67.2124 41.9062C66.9226 41.7812 66.6882 41.5881 66.5092 41.3267C66.3303 41.0653 66.2408 40.7372 66.2408 40.3423V33.8864ZM71.6815 38.1136V42H70.4073V33.2727H71.6644V36.5199H71.7454C71.8988 36.1676 72.1332 35.8878 72.4485 35.6804C72.7638 35.473 73.1758 35.3693 73.6843 35.3693C74.1332 35.3693 74.5252 35.4616 74.8604 35.6463C75.1985 35.831 75.4599 36.1065 75.6445 36.473C75.832 36.8366 75.9258 37.2912 75.9258 37.8366V42H74.6516V37.9901C74.6516 37.5099 74.5281 37.1378 74.2809 36.8736C74.0337 36.6065 73.69 36.473 73.2496 36.473C72.9485 36.473 72.6786 36.5369 72.44 36.6648C72.2042 36.7926 72.0181 36.9801 71.8817 37.2273C71.7482 37.4716 71.6815 37.767 71.6815 38.1136ZM80.4471 42.1321C79.8022 42.1321 79.2468 41.9943 78.7809 41.7188C78.3178 41.4403 77.9599 41.0497 77.707 40.5469C77.457 40.0412 77.332 39.4489 77.332 38.7699C77.332 38.0994 77.457 37.5085 77.707 36.9972C77.9599 36.4858 78.3121 36.0866 78.7638 35.7997C79.2184 35.5128 79.7496 35.3693 80.3576 35.3693C80.7269 35.3693 81.0849 35.4304 81.4315 35.5526C81.7781 35.6747 82.0891 35.8665 82.3647 36.1278C82.6403 36.3892 82.8576 36.7287 83.0167 37.1463C83.1758 37.5611 83.2553 38.0653 83.2553 38.6591V39.1108H78.0522V38.1562H82.0067C82.0067 37.821 81.9386 37.5241 81.8022 37.2656C81.6658 37.0043 81.4741 36.7983 81.2269 36.6477C80.9826 36.4972 80.6957 36.4219 80.3661 36.4219C80.0082 36.4219 79.6957 36.5099 79.4286 36.6861C79.1644 36.8594 78.9599 37.0866 78.815 37.3679C78.6729 37.6463 78.6019 37.9489 78.6019 38.2756V39.0213C78.6019 39.4588 78.6786 39.831 78.832 40.1378C78.9883 40.4446 79.2056 40.679 79.484 40.8409C79.7624 41 80.0877 41.0795 80.4599 41.0795C80.7013 41.0795 80.9215 41.0455 81.1204 40.9773C81.3192 40.9062 81.4911 40.8011 81.636 40.6619C81.7809 40.5227 81.8917 40.3509 81.9684 40.1463L83.1744 40.3636C83.0778 40.7187 82.9045 41.0298 82.6545 41.2969C82.4073 41.5611 82.0962 41.767 81.7212 41.9148C81.3491 42.0597 80.9244 42.1321 80.4471 42.1321ZM84.669 42V35.4545H85.9006V36.4943H85.9688C86.0881 36.142 86.2983 35.8651 86.5994 35.6634C86.9034 35.4588 87.2472 35.3565 87.6307 35.3565C87.7102 35.3565 87.804 35.3594 87.9119 35.3651C88.0227 35.3707 88.1094 35.3778 88.1719 35.3864V36.6051C88.1207 36.5909 88.0298 36.5753 87.8991 36.5582C87.7685 36.5384 87.6378 36.5284 87.5071 36.5284C87.206 36.5284 86.9375 36.5923 86.7017 36.7202C86.4688 36.8452 86.2841 37.0199 86.1477 37.2443C86.0114 37.4659 85.9432 37.7187 85.9432 38.0028V42H84.669ZM94.1793 37.0526L93.0245 37.2571C92.9762 37.1094 92.8995 36.9687 92.7944 36.8352C92.6921 36.7017 92.5529 36.5923 92.3768 36.5071C92.2006 36.4219 91.9805 36.3793 91.7163 36.3793C91.3555 36.3793 91.0543 36.4602 90.8129 36.6222C90.5714 36.7812 90.4506 36.9872 90.4506 37.2401C90.4506 37.4588 90.5316 37.6349 90.6935 37.7685C90.8555 37.902 91.1168 38.0114 91.4776 38.0966L92.5174 38.3352C93.1197 38.4744 93.5685 38.6889 93.864 38.9787C94.1594 39.2685 94.3072 39.6449 94.3072 40.108C94.3072 40.5 94.1935 40.8494 93.9663 41.1562C93.7418 41.4602 93.4279 41.6989 93.0245 41.8722C92.6239 42.0455 92.1594 42.1321 91.631 42.1321C90.8981 42.1321 90.3001 41.9759 89.837 41.6634C89.3739 41.348 89.0898 40.9006 88.9847 40.321L90.2163 40.1335C90.293 40.4545 90.4506 40.6974 90.6893 40.8622C90.9279 41.0241 91.239 41.1051 91.6225 41.1051C92.0401 41.1051 92.3739 41.0185 92.6239 40.8452C92.8739 40.669 92.9989 40.4545 92.9989 40.2017C92.9989 39.9972 92.9222 39.8253 92.7688 39.6861C92.6183 39.5469 92.3867 39.4418 92.0742 39.3707L90.9663 39.1278C90.3555 38.9886 89.9038 38.767 89.6112 38.4631C89.3214 38.1591 89.1765 37.7741 89.1765 37.3082C89.1765 36.9219 89.2844 36.5838 89.5004 36.294C89.7163 36.0043 90.0146 35.7784 90.3952 35.6165C90.7759 35.4517 91.212 35.3693 91.7035 35.3693C92.4109 35.3693 92.9677 35.5227 93.3739 35.8295C93.7802 36.1335 94.0487 36.5412 94.1793 37.0526Z" fill="white"/>
<path d="M469.871 42V33.2727H473.143C473.814 33.2727 474.376 33.3977 474.831 33.6477C475.288 33.8977 475.633 34.2415 475.866 34.679C476.102 35.1136 476.22 35.608 476.22 36.1619C476.22 36.7216 476.102 37.2187 475.866 37.6534C475.631 38.0881 475.282 38.4304 474.822 38.6804C474.362 38.9276 473.795 39.0511 473.122 39.0511H470.953V37.7514H472.909C473.301 37.7514 473.622 37.6832 473.872 37.5469C474.122 37.4105 474.307 37.223 474.426 36.9844C474.548 36.7457 474.609 36.4716 474.609 36.1619C474.609 35.8523 474.548 35.5795 474.426 35.3438C474.307 35.108 474.121 34.9247 473.868 34.794C473.618 34.6605 473.295 34.5938 472.9 34.5938H471.452V42H469.871ZM477.525 42V35.4545H479.021V36.5455H479.089C479.208 36.1676 479.413 35.8764 479.703 35.6719C479.995 35.4645 480.329 35.3608 480.704 35.3608C480.789 35.3608 480.884 35.3651 480.99 35.3736C481.097 35.3793 481.187 35.3892 481.258 35.4034V36.8224C481.193 36.7997 481.089 36.7798 480.947 36.7628C480.808 36.7429 480.673 36.733 480.542 36.733C480.261 36.733 480.008 36.794 479.784 36.9162C479.562 37.0355 479.387 37.2017 479.259 37.4148C479.132 37.6278 479.068 37.8736 479.068 38.152V42H477.525ZM482.283 42V35.4545H483.825V42H482.283ZM483.058 34.5256C482.814 34.5256 482.604 34.4446 482.428 34.2827C482.252 34.1179 482.164 33.9205 482.164 33.6903C482.164 33.4574 482.252 33.2599 482.428 33.098C482.604 32.9332 482.814 32.8509 483.058 32.8509C483.306 32.8509 483.516 32.9332 483.689 33.098C483.865 33.2599 483.953 33.4574 483.953 33.6903C483.953 33.9205 483.865 34.1179 483.689 34.2827C483.516 34.4446 483.306 34.5256 483.058 34.5256ZM491.258 35.4545L488.927 42H487.223L484.892 35.4545H486.537L488.041 40.3168H488.109L489.618 35.4545H491.258ZM494.022 42.1321C493.607 42.1321 493.233 42.0582 492.901 41.9105C492.572 41.7599 492.31 41.5384 492.117 41.2457C491.927 40.9531 491.831 40.5923 491.831 40.1634C491.831 39.794 491.9 39.4886 492.036 39.2472C492.172 39.0057 492.358 38.8125 492.594 38.6676C492.83 38.5227 493.096 38.4134 493.391 38.3395C493.689 38.2628 493.998 38.2074 494.316 38.1733C494.699 38.1335 495.01 38.098 495.249 38.0668C495.488 38.0327 495.661 37.9815 495.769 37.9134C495.88 37.8423 495.935 37.733 495.935 37.5852V37.5597C495.935 37.2386 495.84 36.9901 495.65 36.8139C495.459 36.6378 495.185 36.5497 494.827 36.5497C494.449 36.5497 494.15 36.6321 493.928 36.7969C493.709 36.9616 493.562 37.1562 493.485 37.3807L492.045 37.1761C492.158 36.7784 492.346 36.446 492.607 36.179C492.868 35.9091 493.188 35.7074 493.566 35.5739C493.944 35.4375 494.361 35.3693 494.819 35.3693C495.134 35.3693 495.448 35.4062 495.76 35.4801C496.073 35.554 496.358 35.6761 496.617 35.8466C496.876 36.0142 497.083 36.2429 497.239 36.5327C497.398 36.8224 497.478 37.1847 497.478 37.6193V42H495.995V41.1009H495.944C495.85 41.2827 495.718 41.4531 495.547 41.6122C495.38 41.7685 495.168 41.8949 494.912 41.9915C494.66 42.0852 494.363 42.1321 494.022 42.1321ZM494.422 40.9986C494.732 40.9986 495.001 40.9375 495.228 40.8153C495.455 40.6903 495.63 40.5256 495.752 40.321C495.877 40.1165 495.939 39.8935 495.939 39.652V38.8807C495.891 38.9205 495.809 38.9574 495.692 38.9915C495.579 39.0256 495.451 39.0554 495.309 39.081C495.167 39.1065 495.026 39.1293 494.887 39.1491C494.748 39.169 494.627 39.1861 494.525 39.2003C494.295 39.2315 494.089 39.2827 493.907 39.3537C493.725 39.4247 493.581 39.5241 493.476 39.652C493.371 39.777 493.319 39.9389 493.319 40.1378C493.319 40.4219 493.422 40.6364 493.63 40.7812C493.837 40.9261 494.101 40.9986 494.422 40.9986ZM501.884 42.1278C501.231 42.1278 500.67 41.9844 500.201 41.6974C499.735 41.4105 499.376 41.0142 499.123 40.5085C498.873 40 498.748 39.4148 498.748 38.7528C498.748 38.0881 498.876 37.5014 499.131 36.9929C499.387 36.4815 499.748 36.0838 500.214 35.7997C500.682 35.5128 501.236 35.3693 501.876 35.3693C502.407 35.3693 502.877 35.4673 503.286 35.6634C503.698 35.8565 504.026 36.1307 504.27 36.4858C504.515 36.8381 504.654 37.25 504.688 37.7216H503.214C503.154 37.4062 503.012 37.1435 502.787 36.9332C502.566 36.7202 502.269 36.6136 501.897 36.6136C501.581 36.6136 501.305 36.6989 501.066 36.8693C500.827 37.0369 500.641 37.2784 500.508 37.5938C500.377 37.9091 500.312 38.2869 500.312 38.7273C500.312 39.1733 500.377 39.5568 500.508 39.8778C500.638 40.196 500.822 40.4418 501.057 40.6151C501.296 40.7855 501.576 40.8707 501.897 40.8707C502.124 40.8707 502.327 40.8281 502.506 40.7429C502.688 40.6548 502.84 40.5284 502.962 40.3636C503.084 40.1989 503.168 39.9986 503.214 39.7628H504.688C504.651 40.2259 504.515 40.6364 504.279 40.9943C504.043 41.3494 503.722 41.6278 503.316 41.8295C502.91 42.0284 502.432 42.1278 501.884 42.1278ZM506.914 44.4545C506.703 44.4545 506.509 44.4375 506.33 44.4034C506.154 44.3722 506.013 44.3352 505.908 44.2926L506.266 43.0909C506.49 43.1563 506.691 43.1875 506.867 43.1847C507.043 43.1818 507.198 43.1264 507.331 43.0185C507.468 42.9134 507.583 42.7372 507.676 42.4901L507.808 42.1364L505.435 35.4545H507.071L508.58 40.3977H508.648L510.161 35.4545H511.801L509.181 42.7926C509.058 43.1392 508.896 43.4361 508.695 43.6832C508.493 43.9332 508.246 44.1236 507.953 44.2543C507.664 44.3878 507.317 44.4545 506.914 44.4545ZM517.729 42.1321C517.314 42.1321 516.941 42.0582 516.608 41.9105C516.279 41.7599 516.017 41.5384 515.824 41.2457C515.634 40.9531 515.539 40.5923 515.539 40.1634C515.539 39.794 515.607 39.4886 515.743 39.2472C515.879 39.0057 516.066 38.8125 516.301 38.6676C516.537 38.5227 516.803 38.4134 517.098 38.3395C517.396 38.2628 517.705 38.2074 518.023 38.1733C518.406 38.1335 518.718 38.098 518.956 38.0668C519.195 38.0327 519.368 37.9815 519.476 37.9134C519.587 37.8423 519.642 37.733 519.642 37.5852V37.5597C519.642 37.2386 519.547 36.9901 519.357 36.8139C519.166 36.6378 518.892 36.5497 518.534 36.5497C518.156 36.5497 517.857 36.6321 517.635 36.7969C517.416 36.9616 517.269 37.1562 517.192 37.3807L515.752 37.1761C515.865 36.7784 516.053 36.446 516.314 36.179C516.575 35.9091 516.895 35.7074 517.273 35.5739C517.651 35.4375 518.068 35.3693 518.526 35.3693C518.841 35.3693 519.155 35.4062 519.468 35.4801C519.78 35.554 520.066 35.6761 520.324 35.8466C520.583 36.0142 520.79 36.2429 520.946 36.5327C521.105 36.8224 521.185 37.1847 521.185 37.6193V42H519.702V41.1009H519.651C519.557 41.2827 519.425 41.4531 519.254 41.6122C519.087 41.7685 518.875 41.8949 518.619 41.9915C518.367 42.0852 518.07 42.1321 517.729 42.1321ZM518.129 40.9986C518.439 40.9986 518.708 40.9375 518.935 40.8153C519.162 40.6903 519.337 40.5256 519.459 40.321C519.584 40.1165 519.646 39.8935 519.646 39.652V38.8807C519.598 38.9205 519.516 38.9574 519.399 38.9915C519.286 39.0256 519.158 39.0554 519.016 39.081C518.874 39.1065 518.733 39.1293 518.594 39.1491C518.455 39.169 518.334 39.1861 518.232 39.2003C518.002 39.2315 517.796 39.2827 517.614 39.3537C517.432 39.4247 517.289 39.5241 517.183 39.652C517.078 39.777 517.026 39.9389 517.026 40.1378C517.026 40.4219 517.129 40.6364 517.337 40.7812C517.544 40.9261 517.808 40.9986 518.129 40.9986ZM524.279 38.1648V42H522.736V35.4545H524.21V36.5668H524.287C524.438 36.2003 524.678 35.9091 525.007 35.6932C525.34 35.4773 525.75 35.3693 526.239 35.3693C526.691 35.3693 527.084 35.4659 527.419 35.6591C527.757 35.8523 528.019 36.1321 528.203 36.4986C528.391 36.8651 528.483 37.3097 528.48 37.8324V42H526.938V38.071C526.938 37.6335 526.824 37.2912 526.597 37.044C526.372 36.7969 526.061 36.6733 525.664 36.6733C525.394 36.6733 525.154 36.733 524.943 36.8523C524.736 36.9687 524.573 37.1378 524.453 37.3594C524.337 37.581 524.279 37.8494 524.279 38.1648ZM532.477 42.1151C531.963 42.1151 531.503 41.983 531.097 41.7188C530.691 41.4545 530.369 41.071 530.134 40.5682C529.898 40.0653 529.78 39.4545 529.78 38.7358C529.78 38.0085 529.899 37.3949 530.138 36.8949C530.379 36.392 530.705 36.0128 531.114 35.7571C531.523 35.4986 531.979 35.3693 532.482 35.3693C532.865 35.3693 533.181 35.4347 533.428 35.5653C533.675 35.6932 533.871 35.848 534.016 36.0298C534.161 36.2088 534.273 36.3778 534.352 36.5369H534.416V33.2727H535.963V42H534.446V40.9688H534.352C534.273 41.1278 534.158 41.2969 534.007 41.4759C533.857 41.652 533.658 41.8026 533.411 41.9276C533.164 42.0526 532.852 42.1151 532.477 42.1151ZM532.908 40.8494C533.235 40.8494 533.513 40.7614 533.743 40.5852C533.973 40.4062 534.148 40.1577 534.267 39.8395C534.387 39.5213 534.446 39.1506 534.446 38.7273C534.446 38.304 534.387 37.9361 534.267 37.6236C534.151 37.3111 533.977 37.0682 533.747 36.8949C533.52 36.7216 533.24 36.6349 532.908 36.6349C532.564 36.6349 532.277 36.7244 532.047 36.9034C531.817 37.0824 531.644 37.3295 531.527 37.6449C531.411 37.9602 531.352 38.321 531.352 38.7273C531.352 39.1364 531.411 39.5014 531.527 39.8224C531.646 40.1406 531.821 40.392 532.051 40.5767C532.284 40.7585 532.57 40.8494 532.908 40.8494ZM540.268 34.598V33.2727H547.231V34.598H544.534V42H542.966V34.598H540.268ZM550.454 42.1278C549.798 42.1278 549.231 41.9915 548.754 41.7188C548.279 41.4432 547.914 41.054 547.659 40.5511C547.403 40.0455 547.275 39.4503 547.275 38.7656C547.275 38.0923 547.403 37.5014 547.659 36.9929C547.917 36.4815 548.278 36.0838 548.741 35.7997C549.204 35.5128 549.748 35.3693 550.373 35.3693C550.776 35.3693 551.157 35.4347 551.515 35.5653C551.876 35.6932 552.194 35.892 552.47 36.1619C552.748 36.4318 552.967 36.7756 553.126 37.1932C553.285 37.608 553.365 38.1023 553.365 38.6761V39.1491H547.999V38.1094H551.886C551.883 37.8139 551.819 37.5511 551.694 37.321C551.569 37.0881 551.394 36.9048 551.17 36.7713C550.948 36.6378 550.69 36.571 550.394 36.571C550.079 36.571 549.802 36.6477 549.563 36.8011C549.325 36.9517 549.139 37.1506 549.005 37.3977C548.874 37.642 548.808 37.9105 548.805 38.2031V39.1108C548.805 39.4915 548.874 39.8182 549.014 40.0909C549.153 40.3608 549.347 40.5682 549.597 40.7131C549.847 40.8551 550.14 40.9261 550.475 40.9261C550.7 40.9261 550.903 40.8949 551.085 40.8324C551.267 40.767 551.424 40.6719 551.558 40.5469C551.691 40.4219 551.792 40.267 551.86 40.0824L553.301 40.2443C553.21 40.625 553.036 40.9574 552.781 41.2415C552.528 41.5227 552.204 41.7415 551.809 41.8977C551.414 42.0511 550.963 42.1278 550.454 42.1278ZM554.67 42V35.4545H556.165V36.5455H556.233C556.353 36.1676 556.557 35.8764 556.847 35.6719C557.14 35.4645 557.474 35.3608 557.849 35.3608C557.934 35.3608 558.029 35.3651 558.134 35.3736C558.242 35.3793 558.331 35.3892 558.403 35.4034V36.8224C558.337 36.7997 558.233 36.7798 558.091 36.7628C557.952 36.7429 557.817 36.733 557.687 36.733C557.405 36.733 557.153 36.794 556.928 36.9162C556.706 37.0355 556.532 37.2017 556.404 37.4148C556.276 37.6278 556.212 37.8736 556.212 38.152V42H554.67ZM559.427 42V35.4545H560.902V36.5668H560.979C561.115 36.1918 561.341 35.8991 561.656 35.6889C561.971 35.4759 562.348 35.3693 562.785 35.3693C563.229 35.3693 563.602 35.4773 563.906 35.6932C564.213 35.9062 564.429 36.1974 564.554 36.5668H564.622C564.767 36.2031 565.011 35.9134 565.355 35.6974C565.702 35.4787 566.112 35.3693 566.586 35.3693C567.189 35.3693 567.68 35.5597 568.061 35.9403C568.442 36.321 568.632 36.8764 568.632 37.6065V42H567.085V37.8452C567.085 37.4389 566.977 37.142 566.761 36.9545C566.545 36.7642 566.281 36.669 565.969 36.669C565.596 36.669 565.305 36.7855 565.095 37.0185C564.888 37.2486 564.784 37.5483 564.784 37.9176V42H563.271V37.7812C563.271 37.4432 563.169 37.1733 562.964 36.9716C562.763 36.7699 562.498 36.669 562.172 36.669C561.95 36.669 561.748 36.7259 561.567 36.8395C561.385 36.9503 561.24 37.108 561.132 37.3125C561.024 37.5142 560.97 37.75 560.97 38.0199V42H559.427ZM575.37 37.1847L573.964 37.3381C573.924 37.196 573.855 37.0625 573.755 36.9375C573.659 36.8125 573.528 36.7116 573.363 36.6349C573.198 36.5582 572.997 36.5199 572.758 36.5199C572.437 36.5199 572.167 36.5895 571.948 36.7287C571.732 36.8679 571.626 37.0483 571.629 37.2699C571.626 37.4602 571.695 37.6151 571.838 37.7344C571.982 37.8537 572.221 37.9517 572.553 38.0284L573.67 38.267C574.289 38.4006 574.749 38.6122 575.051 38.902C575.355 39.1918 575.508 39.571 575.511 40.0398C575.508 40.4517 575.387 40.8153 575.149 41.1307C574.913 41.4432 574.585 41.6875 574.164 41.8636C573.744 42.0398 573.261 42.1278 572.715 42.1278C571.914 42.1278 571.269 41.9602 570.781 41.625C570.292 41.2869 570.001 40.8168 569.907 40.2145L571.411 40.0696C571.48 40.3651 571.624 40.5881 571.846 40.7386C572.068 40.8892 572.356 40.9645 572.711 40.9645C573.078 40.9645 573.372 40.8892 573.593 40.7386C573.818 40.5881 573.93 40.402 573.93 40.1804C573.93 39.9929 573.857 39.8381 573.713 39.7159C573.57 39.5937 573.349 39.5 573.048 39.4347L571.931 39.2003C571.303 39.0696 570.839 38.8494 570.538 38.5398C570.237 38.2273 570.088 37.8324 570.09 37.3551C570.088 36.9517 570.197 36.6023 570.419 36.3068C570.643 36.0085 570.954 35.7784 571.352 35.6165C571.752 35.4517 572.214 35.3693 572.737 35.3693C573.504 35.3693 574.107 35.5327 574.548 35.8594C574.991 36.1861 575.265 36.6278 575.37 37.1847Z" fill="#75919E"/>
<path d="M601.197 42V33.2727H602.778V40.6747H606.621V42H601.197ZM610.823 42.1278C610.167 42.1278 609.6 41.9915 609.123 41.7188C608.648 41.4432 608.283 41.054 608.028 40.5511C607.772 40.0455 607.644 39.4503 607.644 38.7656C607.644 38.0923 607.772 37.5014 608.028 36.9929C608.286 36.4815 608.647 36.0838 609.11 35.7997C609.573 35.5128 610.117 35.3693 610.742 35.3693C611.146 35.3693 611.526 35.4347 611.884 35.5653C612.245 35.6932 612.563 35.892 612.839 36.1619C613.117 36.4318 613.336 36.7756 613.495 37.1932C613.654 37.608 613.734 38.1023 613.734 38.6761V39.1491H608.369V38.1094H612.255C612.252 37.8139 612.188 37.5511 612.063 37.321C611.938 37.0881 611.763 36.9048 611.539 36.7713C611.317 36.6378 611.059 36.571 610.763 36.571C610.448 36.571 610.171 36.6477 609.933 36.8011C609.694 36.9517 609.508 37.1506 609.374 37.3977C609.244 37.642 609.177 37.9105 609.174 38.2031V39.1108C609.174 39.4915 609.244 39.8182 609.383 40.0909C609.522 40.3608 609.717 40.5682 609.967 40.7131C610.217 40.8551 610.509 40.9261 610.844 40.9261C611.069 40.9261 611.272 40.8949 611.454 40.8324C611.636 40.767 611.793 40.6719 611.927 40.5469C612.06 40.4219 612.161 40.267 612.229 40.0824L613.67 40.2443C613.579 40.625 613.406 40.9574 613.15 41.2415C612.897 41.5227 612.573 41.7415 612.178 41.8977C611.783 42.0511 611.332 42.1278 610.823 42.1278ZM617.885 44.5909C617.331 44.5909 616.855 44.5156 616.458 44.3651C616.06 44.2173 615.74 44.0185 615.499 43.7685C615.257 43.5185 615.09 43.2415 614.996 42.9375L616.385 42.6009C616.448 42.7287 616.539 42.8551 616.658 42.9801C616.777 43.108 616.938 43.2131 617.14 43.2955C617.344 43.3807 617.601 43.4233 617.911 43.4233C618.348 43.4233 618.711 43.3168 618.998 43.1037C619.284 42.8935 619.428 42.5469 619.428 42.0639V40.8239H619.351C619.272 40.983 619.155 41.1463 619.002 41.3139C618.851 41.4815 618.651 41.6222 618.401 41.7358C618.154 41.8494 617.843 41.9062 617.468 41.9062C616.965 41.9062 616.509 41.7884 616.1 41.5526C615.694 41.3139 615.37 40.9588 615.128 40.4872C614.89 40.0128 614.77 39.419 614.77 38.706C614.77 37.9872 614.89 37.3807 615.128 36.8864C615.37 36.3892 615.695 36.0128 616.104 35.7571C616.513 35.4986 616.969 35.3693 617.472 35.3693C617.855 35.3693 618.171 35.4347 618.418 35.5653C618.668 35.6932 618.867 35.848 619.015 36.0298C619.162 36.2088 619.275 36.3778 619.351 36.5369H619.436V35.4545H620.958V42.1065C620.958 42.6662 620.824 43.1293 620.557 43.4957C620.29 43.8622 619.925 44.1364 619.462 44.3182C618.999 44.5 618.473 44.5909 617.885 44.5909ZM617.898 40.696C618.225 40.696 618.503 40.6165 618.733 40.4574C618.963 40.2983 619.138 40.0696 619.257 39.7713C619.377 39.473 619.436 39.1151 619.436 38.6974C619.436 38.2855 619.377 37.9247 619.257 37.6151C619.141 37.3054 618.968 37.0653 618.738 36.8949C618.51 36.7216 618.23 36.6349 617.898 36.6349C617.554 36.6349 617.267 36.7244 617.037 36.9034C616.807 37.0824 616.634 37.3281 616.517 37.6406C616.401 37.9503 616.343 38.3026 616.343 38.6974C616.343 39.098 616.401 39.4489 616.517 39.75C616.637 40.0483 616.811 40.2812 617.042 40.4489C617.275 40.6136 617.56 40.696 617.898 40.696ZM624.422 42.1321C624.007 42.1321 623.634 42.0582 623.301 41.9105C622.972 41.7599 622.711 41.5384 622.517 41.2457C622.327 40.9531 622.232 40.5923 622.232 40.1634C622.232 39.794 622.3 39.4886 622.436 39.2472C622.573 39.0057 622.759 38.8125 622.995 38.6676C623.23 38.5227 623.496 38.4134 623.792 38.3395C624.09 38.2628 624.398 38.2074 624.716 38.1733C625.1 38.1335 625.411 38.098 625.65 38.0668C625.888 38.0327 626.061 37.9815 626.169 37.9134C626.28 37.8423 626.336 37.733 626.336 37.5852V37.5597C626.336 37.2386 626.24 36.9901 626.05 36.8139C625.86 36.6378 625.586 36.5497 625.228 36.5497C624.85 36.5497 624.55 36.6321 624.328 36.7969C624.11 36.9616 623.962 37.1562 623.885 37.3807L622.445 37.1761C622.559 36.7784 622.746 36.446 623.007 36.179C623.269 35.9091 623.588 35.7074 623.966 35.5739C624.344 35.4375 624.762 35.3693 625.219 35.3693C625.534 35.3693 625.848 35.4062 626.161 35.4801C626.473 35.554 626.759 35.6761 627.017 35.8466C627.276 36.0142 627.483 36.2429 627.64 36.5327C627.799 36.8224 627.878 37.1847 627.878 37.6193V42H626.395V41.1009H626.344C626.25 41.2827 626.118 41.4531 625.948 41.6122C625.78 41.7685 625.569 41.8949 625.313 41.9915C625.06 42.0852 624.763 42.1321 624.422 42.1321ZM624.823 40.9986C625.132 40.9986 625.401 40.9375 625.628 40.8153C625.855 40.6903 626.03 40.5256 626.152 40.321C626.277 40.1165 626.34 39.8935 626.34 39.652V38.8807C626.292 38.9205 626.209 38.9574 626.093 38.9915C625.979 39.0256 625.851 39.0554 625.709 39.081C625.567 39.1065 625.426 39.1293 625.287 39.1491C625.148 39.169 625.027 39.1861 624.925 39.2003C624.695 39.2315 624.489 39.2827 624.307 39.3537C624.125 39.4247 623.982 39.5241 623.877 39.652C623.772 39.777 623.719 39.9389 623.719 40.1378C623.719 40.4219 623.823 40.6364 624.03 40.7812C624.238 40.9261 624.502 40.9986 624.823 40.9986ZM630.972 33.2727V42H629.429V33.2727H630.972ZM642.775 33.2727V42H641.369L637.256 36.0554H637.184V42H635.603V33.2727H637.018L641.126 39.2216H641.202V33.2727H642.775ZM647.284 42.1278C646.645 42.1278 646.091 41.9872 645.623 41.706C645.154 41.4247 644.79 41.0312 644.532 40.5256C644.276 40.0199 644.148 39.429 644.148 38.7528C644.148 38.0767 644.276 37.4844 644.532 36.9759C644.79 36.4673 645.154 36.0724 645.623 35.7912C646.091 35.5099 646.645 35.3693 647.284 35.3693C647.924 35.3693 648.478 35.5099 648.946 35.7912C649.415 36.0724 649.777 36.4673 650.033 36.9759C650.292 37.4844 650.421 38.0767 650.421 38.7528C650.421 39.429 650.292 40.0199 650.033 40.5256C649.777 41.0312 649.415 41.4247 648.946 41.706C648.478 41.9872 647.924 42.1278 647.284 42.1278ZM647.293 40.892C647.64 40.892 647.929 40.7969 648.162 40.6065C648.395 40.4134 648.569 40.1548 648.682 39.831C648.799 39.5071 648.857 39.1463 648.857 38.7486C648.857 38.348 648.799 37.9858 648.682 37.6619C648.569 37.3352 648.395 37.0753 648.162 36.8821C647.929 36.6889 647.64 36.5923 647.293 36.5923C646.938 36.5923 646.642 36.6889 646.407 36.8821C646.174 37.0753 645.999 37.3352 645.882 37.6619C645.769 37.9858 645.712 38.348 645.712 38.7486C645.712 39.1463 645.769 39.5071 645.882 39.831C645.999 40.1548 646.174 40.4134 646.407 40.6065C646.642 40.7969 646.938 40.892 647.293 40.892ZM654.999 35.4545V36.6477H651.236V35.4545H654.999ZM652.165 33.8864H653.707V40.0312C653.707 40.2386 653.739 40.3977 653.801 40.5085C653.866 40.6165 653.952 40.6903 654.057 40.7301C654.162 40.7699 654.278 40.7898 654.406 40.7898C654.503 40.7898 654.591 40.7827 654.67 40.7685C654.753 40.7543 654.815 40.7415 654.858 40.7301L655.118 41.9361C655.036 41.9645 654.918 41.9957 654.764 42.0298C654.614 42.0639 654.429 42.0838 654.21 42.0895C653.824 42.1009 653.476 42.0426 653.166 41.9148C652.857 41.7841 652.611 41.5824 652.429 41.3097C652.25 41.0369 652.162 40.696 652.165 40.2869V33.8864ZM656.289 42V35.4545H657.831V42H656.289ZM657.064 34.5256C656.82 34.5256 656.61 34.4446 656.434 34.2827C656.257 34.1179 656.169 33.9205 656.169 33.6903C656.169 33.4574 656.257 33.2599 656.434 33.098C656.61 32.9332 656.82 32.8509 657.064 32.8509C657.311 32.8509 657.522 32.9332 657.695 33.098C657.871 33.2599 657.959 33.4574 657.959 33.6903C657.959 33.9205 657.871 34.1179 657.695 34.2827C657.522 34.4446 657.311 34.5256 657.064 34.5256ZM662.273 42.1278C661.619 42.1278 661.058 41.9844 660.589 41.6974C660.124 41.4105 659.764 41.0142 659.511 40.5085C659.261 40 659.136 39.4148 659.136 38.7528C659.136 38.0881 659.264 37.5014 659.52 36.9929C659.776 36.4815 660.136 36.0838 660.602 35.7997C661.071 35.5128 661.625 35.3693 662.264 35.3693C662.795 35.3693 663.266 35.4673 663.675 35.6634C664.087 35.8565 664.415 36.1307 664.659 36.4858C664.903 36.8381 665.043 37.25 665.077 37.7216H663.602C663.543 37.4062 663.401 37.1435 663.176 36.9332C662.955 36.7202 662.658 36.6136 662.286 36.6136C661.97 36.6136 661.693 36.6989 661.455 36.8693C661.216 37.0369 661.03 37.2784 660.896 37.5938C660.766 37.9091 660.7 38.2869 660.7 38.7273C660.7 39.1733 660.766 39.5568 660.896 39.8778C661.027 40.196 661.21 40.4418 661.446 40.6151C661.685 40.7855 661.964 40.8707 662.286 40.8707C662.513 40.8707 662.716 40.8281 662.895 40.7429C663.077 40.6548 663.229 40.5284 663.351 40.3636C663.473 40.1989 663.557 39.9986 663.602 39.7628H665.077C665.04 40.2259 664.903 40.6364 664.668 40.9943C664.432 41.3494 664.111 41.6278 663.705 41.8295C663.298 42.0284 662.821 42.1278 662.273 42.1278ZM669.241 42.1278C668.585 42.1278 668.018 41.9915 667.541 41.7188C667.066 41.4432 666.701 41.054 666.446 40.5511C666.19 40.0455 666.062 39.4503 666.062 38.7656C666.062 38.0923 666.19 37.5014 666.446 36.9929C666.704 36.4815 667.065 36.0838 667.528 35.7997C667.991 35.5128 668.535 35.3693 669.16 35.3693C669.564 35.3693 669.944 35.4347 670.302 35.5653C670.663 35.6932 670.981 35.892 671.257 36.1619C671.535 36.4318 671.754 36.7756 671.913 37.1932C672.072 37.608 672.152 38.1023 672.152 38.6761V39.1491H666.787V38.1094H670.673C670.67 37.8139 670.606 37.5511 670.481 37.321C670.356 37.0881 670.181 36.9048 669.957 36.7713C669.735 36.6378 669.477 36.571 669.181 36.571C668.866 36.571 668.589 36.6477 668.35 36.8011C668.112 36.9517 667.926 37.1506 667.792 37.3977C667.662 37.642 667.595 37.9105 667.592 38.2031V39.1108C667.592 39.4915 667.662 39.8182 667.801 40.0909C667.94 40.3608 668.135 40.5682 668.385 40.7131C668.635 40.8551 668.927 40.9261 669.262 40.9261C669.487 40.9261 669.69 40.8949 669.872 40.8324C670.054 40.767 670.211 40.6719 670.345 40.5469C670.478 40.4219 670.579 40.267 670.647 40.0824L672.088 40.2443C671.997 40.625 671.824 40.9574 671.568 41.2415C671.315 41.5227 670.991 41.7415 670.596 41.8977C670.201 42.0511 669.75 42.1278 669.241 42.1278Z" fill="#75919E"/>
<path d="M698.259 42V33.2727H699.84V40.6747H703.684V42H698.259ZM706.871 42.1321C706.457 42.1321 706.083 42.0582 705.751 41.9105C705.421 41.7599 705.16 41.5384 704.967 41.2457C704.776 40.9531 704.681 40.5923 704.681 40.1634C704.681 39.794 704.749 39.4886 704.886 39.2472C705.022 39.0057 705.208 38.8125 705.444 38.6676C705.68 38.5227 705.945 38.4134 706.241 38.3395C706.539 38.2628 706.847 38.2074 707.165 38.1733C707.549 38.1335 707.86 38.098 708.099 38.0668C708.337 38.0327 708.511 37.9815 708.619 37.9134C708.729 37.8423 708.785 37.733 708.785 37.5852V37.5597C708.785 37.2386 708.69 36.9901 708.499 36.8139C708.309 36.6378 708.035 36.5497 707.677 36.5497C707.299 36.5497 706.999 36.6321 706.778 36.7969C706.559 36.9616 706.411 37.1562 706.335 37.3807L704.894 37.1761C705.008 36.7784 705.195 36.446 705.457 36.179C705.718 35.9091 706.038 35.7074 706.415 35.5739C706.793 35.4375 707.211 35.3693 707.668 35.3693C707.984 35.3693 708.298 35.4062 708.61 35.4801C708.923 35.554 709.208 35.6761 709.467 35.8466C709.725 36.0142 709.933 36.2429 710.089 36.5327C710.248 36.8224 710.327 37.1847 710.327 37.6193V42H708.844V41.1009H708.793C708.7 41.2827 708.567 41.4531 708.397 41.6122C708.229 41.7685 708.018 41.8949 707.762 41.9915C707.509 42.0852 707.212 42.1321 706.871 42.1321ZM707.272 40.9986C707.582 40.9986 707.85 40.9375 708.077 40.8153C708.305 40.6903 708.479 40.5256 708.602 40.321C708.727 40.1165 708.789 39.8935 708.789 39.652V38.8807C708.741 38.9205 708.658 38.9574 708.542 38.9915C708.428 39.0256 708.3 39.0554 708.158 39.081C708.016 39.1065 707.876 39.1293 707.737 39.1491C707.597 39.169 707.477 39.1861 707.374 39.2003C707.144 39.2315 706.938 39.2827 706.756 39.3537C706.575 39.4247 706.431 39.5241 706.326 39.652C706.221 39.777 706.168 39.9389 706.168 40.1378C706.168 40.4219 706.272 40.6364 706.479 40.7812C706.687 40.9261 706.951 40.9986 707.272 40.9986ZM713.421 38.1648V42H711.879V35.4545H713.353V36.5668H713.43C713.58 36.2003 713.82 35.9091 714.15 35.6932C714.482 35.4773 714.893 35.3693 715.381 35.3693C715.833 35.3693 716.227 35.4659 716.562 35.6591C716.9 35.8523 717.161 36.1321 717.346 36.4986C717.533 36.8651 717.626 37.3097 717.623 37.8324V42H716.08V38.071C716.08 37.6335 715.967 37.2912 715.739 37.044C715.515 36.7969 715.204 36.6733 714.806 36.6733C714.536 36.6733 714.296 36.733 714.086 36.8523C713.879 36.9687 713.715 37.1378 713.596 37.3594C713.479 37.581 713.421 37.8494 713.421 38.1648ZM722.038 44.5909C721.484 44.5909 721.008 44.5156 720.61 44.3651C720.212 44.2173 719.893 44.0185 719.651 43.7685C719.41 43.5185 719.242 43.2415 719.148 42.9375L720.538 42.6009C720.6 42.7287 720.691 42.8551 720.81 42.9801C720.93 43.108 721.09 43.2131 721.292 43.2955C721.496 43.3807 721.754 43.4233 722.063 43.4233C722.501 43.4233 722.863 43.3168 723.15 43.1037C723.437 42.8935 723.58 42.5469 723.58 42.0639V40.8239H723.504C723.424 40.983 723.308 41.1463 723.154 41.3139C723.004 41.4815 722.803 41.6222 722.553 41.7358C722.306 41.8494 721.995 41.9062 721.62 41.9062C721.117 41.9062 720.661 41.7884 720.252 41.5526C719.846 41.3139 719.522 40.9588 719.281 40.4872C719.042 40.0128 718.923 39.419 718.923 38.706C718.923 37.9872 719.042 37.3807 719.281 36.8864C719.522 36.3892 719.847 36.0128 720.256 35.7571C720.665 35.4986 721.121 35.3693 721.624 35.3693C722.008 35.3693 722.323 35.4347 722.57 35.5653C722.82 35.6932 723.019 35.848 723.167 36.0298C723.315 36.2088 723.427 36.3778 723.504 36.5369H723.589V35.4545H725.11V42.1065C725.11 42.6662 724.977 43.1293 724.71 43.4957C724.442 43.8622 724.077 44.1364 723.614 44.3182C723.151 44.5 722.626 44.5909 722.038 44.5909ZM722.05 40.696C722.377 40.696 722.656 40.6165 722.886 40.4574C723.116 40.2983 723.29 40.0696 723.41 39.7713C723.529 39.473 723.589 39.1151 723.589 38.6974C723.589 38.2855 723.529 37.9247 723.41 37.6151C723.293 37.3054 723.12 37.0653 722.89 36.8949C722.663 36.7216 722.383 36.6349 722.05 36.6349C721.707 36.6349 721.42 36.7244 721.19 36.9034C720.96 37.0824 720.786 37.3281 720.67 37.6406C720.553 37.9503 720.495 38.3026 720.495 38.6974C720.495 39.098 720.553 39.4489 720.67 39.75C720.789 40.0483 720.964 40.2812 721.194 40.4489C721.427 40.6136 721.712 40.696 722.05 40.696ZM730.863 39.2472V35.4545H732.406V42H730.91V40.8366H730.842C730.694 41.2031 730.451 41.5028 730.113 41.7358C729.778 41.9687 729.364 42.0852 728.873 42.0852C728.444 42.0852 728.065 41.9901 727.735 41.7997C727.408 41.6065 727.153 41.3267 726.968 40.9602C726.783 40.5909 726.691 40.1449 726.691 39.6222V35.4545H728.234V39.3835C728.234 39.7983 728.347 40.1278 728.575 40.3722C728.802 40.6165 729.1 40.7386 729.469 40.7386C729.697 40.7386 729.917 40.6832 730.13 40.5724C730.343 40.4616 730.518 40.2969 730.654 40.0781C730.793 39.8565 730.863 39.5795 730.863 39.2472ZM735.875 42.1321C735.461 42.1321 735.087 42.0582 734.755 41.9105C734.425 41.7599 734.164 41.5384 733.971 41.2457C733.78 40.9531 733.685 40.5923 733.685 40.1634C733.685 39.794 733.753 39.4886 733.89 39.2472C734.026 39.0057 734.212 38.8125 734.448 38.6676C734.684 38.5227 734.949 38.4134 735.245 38.3395C735.543 38.2628 735.851 38.2074 736.169 38.1733C736.553 38.1335 736.864 38.098 737.103 38.0668C737.341 38.0327 737.515 37.9815 737.623 37.9134C737.733 37.8423 737.789 37.733 737.789 37.5852V37.5597C737.789 37.2386 737.694 36.9901 737.503 36.8139C737.313 36.6378 737.039 36.5497 736.681 36.5497C736.303 36.5497 736.003 36.6321 735.782 36.7969C735.563 36.9616 735.415 37.1562 735.338 37.3807L733.898 37.1761C734.012 36.7784 734.199 36.446 734.461 36.179C734.722 35.9091 735.042 35.7074 735.419 35.5739C735.797 35.4375 736.215 35.3693 736.672 35.3693C736.988 35.3693 737.301 35.4062 737.614 35.4801C737.926 35.554 738.212 35.6761 738.471 35.8466C738.729 36.0142 738.936 36.2429 739.093 36.5327C739.252 36.8224 739.331 37.1847 739.331 37.6193V42H737.848V41.1009H737.797C737.703 41.2827 737.571 41.4531 737.401 41.6122C737.233 41.7685 737.022 41.8949 736.766 41.9915C736.513 42.0852 736.216 42.1321 735.875 42.1321ZM736.276 40.9986C736.586 40.9986 736.854 40.9375 737.081 40.8153C737.309 40.6903 737.483 40.5256 737.605 40.321C737.73 40.1165 737.793 39.8935 737.793 39.652V38.8807C737.745 38.9205 737.662 38.9574 737.546 38.9915C737.432 39.0256 737.304 39.0554 737.162 39.081C737.02 39.1065 736.88 39.1293 736.74 39.1491C736.601 39.169 736.48 39.1861 736.378 39.2003C736.148 39.2315 735.942 39.2827 735.76 39.3537C735.578 39.4247 735.435 39.5241 735.33 39.652C735.225 39.777 735.172 39.9389 735.172 40.1378C735.172 40.4219 735.276 40.6364 735.483 40.7812C735.691 40.9261 735.955 40.9986 736.276 40.9986ZM742.425 38.1648V42H740.882V35.4545H742.357V36.5668H742.434C742.584 36.2003 742.824 35.9091 743.154 35.6932C743.486 35.4773 743.897 35.3693 744.385 35.3693C744.837 35.3693 745.23 35.4659 745.566 35.6591C745.904 35.8523 746.165 36.1321 746.35 36.4986C746.537 36.8651 746.63 37.3097 746.627 37.8324V42H745.084V38.071C745.084 37.6335 744.971 37.2912 744.743 37.044C744.519 36.7969 744.208 36.6733 743.81 36.6733C743.54 36.6733 743.3 36.733 743.09 36.8523C742.882 36.9687 742.719 37.1378 742.6 37.3594C742.483 37.581 742.425 37.8494 742.425 38.1648ZM751.042 44.5909C750.488 44.5909 750.012 44.5156 749.614 44.3651C749.216 44.2173 748.897 44.0185 748.655 43.7685C748.414 43.5185 748.246 43.2415 748.152 42.9375L749.542 42.6009C749.604 42.7287 749.695 42.8551 749.814 42.9801C749.934 43.108 750.094 43.2131 750.296 43.2955C750.5 43.3807 750.757 43.4233 751.067 43.4233C751.505 43.4233 751.867 43.3168 752.154 43.1037C752.441 42.8935 752.584 42.5469 752.584 42.0639V40.8239H752.507C752.428 40.983 752.311 41.1463 752.158 41.3139C752.007 41.4815 751.807 41.6222 751.557 41.7358C751.31 41.8494 750.999 41.9062 750.624 41.9062C750.121 41.9062 749.665 41.7884 749.256 41.5526C748.85 41.3139 748.526 40.9588 748.284 40.4872C748.046 40.0128 747.926 39.419 747.926 38.706C747.926 37.9872 748.046 37.3807 748.284 36.8864C748.526 36.3892 748.851 36.0128 749.26 35.7571C749.669 35.4986 750.125 35.3693 750.628 35.3693C751.012 35.3693 751.327 35.4347 751.574 35.5653C751.824 35.6932 752.023 35.848 752.171 36.0298C752.319 36.2088 752.431 36.3778 752.507 36.5369H752.593V35.4545H754.114V42.1065C754.114 42.6662 753.98 43.1293 753.713 43.4957C753.446 43.8622 753.081 44.1364 752.618 44.3182C752.155 44.5 751.63 44.5909 751.042 44.5909ZM751.054 40.696C751.381 40.696 751.659 40.6165 751.89 40.4574C752.12 40.2983 752.294 40.0696 752.414 39.7713C752.533 39.473 752.593 39.1151 752.593 38.6974C752.593 38.2855 752.533 37.9247 752.414 37.6151C752.297 37.3054 752.124 37.0653 751.894 36.8949C751.667 36.7216 751.387 36.6349 751.054 36.6349C750.711 36.6349 750.424 36.7244 750.194 36.9034C749.963 37.0824 749.79 37.3281 749.674 37.6406C749.557 37.9503 749.499 38.3026 749.499 38.6974C749.499 39.098 749.557 39.4489 749.674 39.75C749.793 40.0483 749.968 40.2812 750.198 40.4489C750.431 40.6136 750.716 40.696 751.054 40.696ZM758.593 42.1278C757.936 42.1278 757.37 41.9915 756.892 41.7188C756.418 41.4432 756.053 41.054 755.797 40.5511C755.542 40.0455 755.414 39.4503 755.414 38.7656C755.414 38.0923 755.542 37.5014 755.797 36.9929C756.056 36.4815 756.417 36.0838 756.88 35.7997C757.343 35.5128 757.887 35.3693 758.512 35.3693C758.915 35.3693 759.296 35.4347 759.654 35.5653C760.015 35.6932 760.333 35.892 760.608 36.1619C760.887 36.4318 761.105 36.7756 761.265 37.1932C761.424 37.608 761.503 38.1023 761.503 38.6761V39.1491H756.138V38.1094H760.025C760.022 37.8139 759.958 37.5511 759.833 37.321C759.708 37.0881 759.533 36.9048 759.309 36.7713C759.087 36.6378 758.828 36.571 758.533 36.571C758.218 36.571 757.941 36.6477 757.702 36.8011C757.463 36.9517 757.277 37.1506 757.144 37.3977C757.013 37.642 756.946 37.9105 756.944 38.2031V39.1108C756.944 39.4915 757.013 39.8182 757.152 40.0909C757.292 40.3608 757.486 40.5682 757.736 40.7131C757.986 40.8551 758.279 40.9261 758.614 40.9261C758.838 40.9261 759.042 40.8949 759.223 40.8324C759.405 40.767 759.563 40.6719 759.696 40.5469C759.83 40.4219 759.931 40.267 759.999 40.0824L761.439 40.2443C761.348 40.625 761.175 40.9574 760.919 41.2415C760.667 41.5227 760.343 41.7415 759.948 41.8977C759.553 42.0511 759.101 42.1278 758.593 42.1278ZM767.982 37.1847L766.575 37.3381C766.536 37.196 766.466 37.0625 766.366 36.9375C766.27 36.8125 766.139 36.7116 765.974 36.6349C765.81 36.5582 765.608 36.5199 765.369 36.5199C765.048 36.5199 764.778 36.5895 764.56 36.7287C764.344 36.8679 764.237 37.0483 764.24 37.2699C764.237 37.4602 764.307 37.6151 764.449 37.7344C764.594 37.8537 764.832 37.9517 765.165 38.0284L766.281 38.267C766.901 38.4006 767.361 38.6122 767.662 38.902C767.966 39.1918 768.119 39.571 768.122 40.0398C768.119 40.4517 767.999 40.8153 767.76 41.1307C767.524 41.4432 767.196 41.6875 766.776 41.8636C766.355 42.0398 765.872 42.1278 765.327 42.1278C764.526 42.1278 763.881 41.9602 763.392 41.625C762.903 41.2869 762.612 40.8168 762.518 40.2145L764.023 40.0696C764.091 40.3651 764.236 40.5881 764.457 40.7386C764.679 40.8892 764.967 40.9645 765.322 40.9645C765.689 40.9645 765.983 40.8892 766.205 40.7386C766.429 40.5881 766.541 40.402 766.541 40.1804C766.541 39.9929 766.469 39.8381 766.324 39.7159C766.182 39.5937 765.96 39.5 765.659 39.4347L764.543 39.2003C763.915 39.0696 763.45 38.8494 763.149 38.5398C762.848 38.2273 762.699 37.8324 762.702 37.3551C762.699 36.9517 762.808 36.6023 763.03 36.3068C763.254 36.0085 763.565 35.7784 763.963 35.6165C764.364 35.4517 764.825 35.3693 765.348 35.3693C766.115 35.3693 766.719 35.5327 767.159 35.8594C767.602 36.1861 767.876 36.6278 767.982 37.1847Z" fill="#75919E"/>
<g clip-path="url(#clip0_2_10716)">
<path d="M1152.5 37.875C1152.5 36.2872 1153.79 34.9998 1155.38 34.9998C1156.96 34.9998 1158.25 36.2872 1158.25 37.875C1158.25 39.4628 1156.96 40.7502 1155.38 40.7502C1153.79 40.7502 1152.5 39.4628 1152.5 37.875ZM1150.95 37.875C1150.95 40.3211 1152.93 42.3038 1155.38 42.3038C1157.82 42.3038 1159.8 40.3211 1159.8 37.875C1159.8 35.4289 1157.82 33.4462 1155.38 33.4462C1152.93 33.4462 1150.95 35.4289 1150.95 37.875ZM1158.94 33.2706C1158.94 33.8419 1159.41 34.3059 1159.98 34.3059C1160.55 34.3059 1161.01 33.8419 1161.01 33.2706C1161.01 32.6993 1160.55 32.236 1159.98 32.236C1159.41 32.236 1158.94 32.6993 1158.94 33.2706ZM1151.89 44.8955C1151.05 44.8572 1150.59 44.7172 1150.29 44.5987C1149.89 44.442 1149.6 44.2553 1149.3 43.9536C1148.99 43.6519 1148.81 43.3649 1148.65 42.9622C1148.53 42.6585 1148.39 42.2014 1148.35 41.3605C1148.31 40.4514 1148.3 40.1783 1148.3 37.875C1148.3 35.5717 1148.31 35.2993 1148.35 34.3895C1148.39 33.5486 1148.53 33.0922 1148.65 32.7878C1148.81 32.3851 1148.99 32.0981 1149.3 31.7957C1149.6 31.494 1149.89 31.3066 1150.29 31.1506C1150.59 31.0321 1151.05 30.8921 1151.89 30.8538C1152.8 30.812 1153.07 30.8036 1155.38 30.8036C1157.68 30.8036 1157.95 30.8127 1158.86 30.8538C1159.7 30.8921 1160.16 31.0328 1160.46 31.1506C1160.86 31.3066 1161.15 31.494 1161.45 31.7957C1161.76 32.0974 1161.94 32.3851 1162.1 32.7878C1162.22 33.0915 1162.36 33.5486 1162.4 34.3895C1162.44 35.2993 1162.45 35.5717 1162.45 37.875C1162.45 40.1776 1162.44 40.4507 1162.4 41.3605C1162.36 42.2014 1162.22 42.6585 1162.1 42.9622C1161.94 43.3649 1161.76 43.6519 1161.45 43.9536C1161.15 44.2553 1160.86 44.442 1160.46 44.5987C1160.16 44.7172 1159.7 44.8572 1158.86 44.8955C1157.95 44.9373 1157.68 44.9457 1155.38 44.9457C1153.07 44.9457 1152.8 44.9373 1151.89 44.8955ZM1151.82 29.3023C1150.9 29.3441 1150.27 29.4897 1149.73 29.7028C1149.16 29.923 1148.68 30.2184 1148.2 30.6977C1147.72 31.177 1147.42 31.6578 1147.2 32.2256C1146.99 32.7738 1146.84 33.4009 1146.8 34.3191C1146.76 35.2387 1146.75 35.5327 1146.75 37.875C1146.75 40.2173 1146.76 40.5113 1146.8 41.4309C1146.84 42.3491 1146.99 42.9762 1147.2 43.5244C1147.42 44.0915 1147.72 44.573 1148.2 45.0523C1148.68 45.5316 1149.16 45.8263 1149.73 46.0472C1150.27 46.2603 1150.9 46.4059 1151.82 46.4477C1152.74 46.4895 1153.03 46.5 1155.38 46.5C1157.72 46.5 1158.01 46.4902 1158.93 46.4477C1159.85 46.4059 1160.48 46.2603 1161.02 46.0472C1161.59 45.8263 1162.07 45.5316 1162.55 45.0523C1163.03 44.573 1163.33 44.0915 1163.55 43.5244C1163.76 42.9762 1163.91 42.3491 1163.95 41.4309C1163.99 40.5106 1164 40.2173 1164 37.875C1164 35.5327 1163.99 35.2387 1163.95 34.3191C1163.91 33.4009 1163.76 32.7738 1163.55 32.2256C1163.33 31.6585 1163.03 31.1777 1162.55 30.6977C1162.07 30.2184 1161.59 29.923 1161.03 29.7028C1160.48 29.4897 1159.85 29.3434 1158.93 29.3023C1158.01 29.2605 1157.72 29.25 1155.38 29.25C1153.03 29.25 1152.74 29.2598 1151.82 29.3023Z" fill="white"/>
</g>
<path fill-rule="evenodd" clip-rule="evenodd" d="M1204 37.875C1204 33.1116 1200.14 29.25 1195.38 29.25C1190.61 29.25 1186.75 33.1116 1186.75 37.875C1186.75 42.5236 1190.43 46.3133 1195.03 46.4933C1194.57 46.4752 1194.12 46.4208 1193.68 46.3332V39.7659H1192.27V37.421H1193.68V36.0133C1193.68 34.1003 1194.47 32.9629 1196.73 32.9629H1198.61V35.308H1197.44C1196.56 35.308 1196.5 35.6356 1196.5 36.2471L1196.5 37.4208H1198.62L1198.37 39.7655H1196.5V46.4276C1196.2 46.4662 1195.9 46.4894 1195.6 46.4971C1200.26 46.3776 1204 42.5631 1204 37.875Z" fill="white"/>
<g clip-path="url(#clip1_2_10716)">
<path d="M1226.75 31.1648C1226.75 30.6098 1226.94 30.1519 1227.33 29.7911C1227.72 29.4304 1228.23 29.25 1228.85 29.25C1229.46 29.25 1229.95 29.4276 1230.33 29.7828C1230.72 30.1491 1230.91 30.6264 1230.91 31.2148C1230.91 31.7476 1230.72 32.1916 1230.35 32.5468C1229.96 32.9131 1229.45 33.0963 1228.81 33.0963H1228.8C1228.19 33.0963 1227.69 32.9131 1227.32 32.5468C1226.94 32.1805 1226.75 31.7198 1226.75 31.1648ZM1226.97 45.7341V34.6115H1230.66V45.7341H1226.97ZM1232.71 45.7341H1236.41V39.5234C1236.41 39.1349 1236.45 38.8352 1236.54 38.6243C1236.7 38.2469 1236.93 37.9277 1237.25 37.6669C1237.56 37.406 1237.96 37.2756 1238.44 37.2756C1239.68 37.2756 1240.3 38.1136 1240.3 39.7898V45.7341H1244V39.3569C1244 37.714 1243.61 36.468 1242.83 35.6188C1242.06 34.7697 1241.03 34.3451 1239.75 34.3451C1238.32 34.3451 1237.21 34.9611 1236.41 36.1933V36.2266H1236.39L1236.41 36.1933V34.6115H1232.71C1232.73 34.9667 1232.74 36.0712 1232.74 37.9249C1232.74 39.7787 1232.73 42.3817 1232.71 45.7341Z" fill="white"/>
</g>
<path d="M1272.17 44.7744C1278.68 44.7744 1282.24 39.3793 1282.24 34.701C1282.24 34.5477 1282.24 34.3952 1282.23 34.2433C1282.93 33.7419 1283.53 33.1211 1284 32.41C1283.37 32.692 1282.68 32.8818 1281.97 32.9674C1282.7 32.5291 1283.26 31.8357 1283.52 31.0092C1282.83 31.4215 1282.07 31.7121 1281.28 31.8686C1280.63 31.1804 1279.71 30.75 1278.69 30.75C1276.74 30.75 1275.15 32.3355 1275.15 34.2899C1275.15 34.5678 1275.18 34.838 1275.25 35.0972C1272.3 34.9491 1269.7 33.5403 1267.95 31.3981C1267.64 31.9384 1267.47 32.5525 1267.47 33.1776C1267.47 34.4059 1268.1 35.4903 1269.05 36.1247C1268.48 36.1075 1267.93 35.9556 1267.44 35.6819C1267.44 35.6967 1267.44 35.7112 1267.44 35.7271C1267.44 37.4417 1268.66 38.8732 1270.28 39.1976C1269.98 39.2805 1269.66 39.3224 1269.35 39.3222C1269.12 39.3222 1268.9 39.2998 1268.68 39.2584C1269.13 40.6651 1270.44 41.6888 1271.99 41.7174C1270.78 42.6672 1269.25 43.2329 1267.59 43.2329C1267.31 43.2331 1267.03 43.2167 1266.75 43.1838C1268.32 44.1881 1270.18 44.7741 1272.18 44.7741" fill="white"/>
<defs>
<clipPath id="clip0_2_10716">
<rect width="17.25" height="17.25" fill="white" transform="translate(1146.75 29.25)"/>
</clipPath>
<clipPath id="clip1_2_10716">
<rect width="17.25" height="16.4841" fill="white" transform="translate(1226.75 29.25)"/>
</clipPath>
</defs>
</svg>
